<mxfile host="app.diagrams.net" agent="Mozilla/5.0 (Windows NT 10.0; Win64; x64) AppleWebKit/537.36 (KHTML, like Gecko) Chrome/130.0.0.0 Safari/537.36 Edg/130.0.0.0" version="24.8.0">
  <diagram id="C5RBs43oDa-KdzZeNtuy" name="Page-1">
    <mxGraphModel dx="3881" dy="871" grid="1" gridSize="10" guides="1" tooltips="1" connect="1" arrows="1" fold="1" page="1" pageScale="1" pageWidth="827" pageHeight="1169" math="0" shadow="0">
      <root>
        <mxCell id="WIyWlLk6GJQsqaUBKTNV-0" />
        <mxCell id="WIyWlLk6GJQsqaUBKTNV-1" parent="WIyWlLk6GJQsqaUBKTNV-0" />
        <mxCell id="j-uOjzAiipVmSamTyCxf-2" value="" style="edgeStyle=orthogonalEdgeStyle;rounded=0;orthogonalLoop=1;jettySize=auto;html=1;" parent="WIyWlLk6GJQsqaUBKTNV-1" source="WIyWlLk6GJQsqaUBKTNV-3" target="j-uOjzAiipVmSamTyCxf-1" edge="1">
          <mxGeometry relative="1" as="geometry" />
        </mxCell>
        <mxCell id="WIyWlLk6GJQsqaUBKTNV-3" value="Start" style="rounded=1;whiteSpace=wrap;html=1;fontSize=12;glass=0;strokeWidth=1;shadow=0;" parent="WIyWlLk6GJQsqaUBKTNV-1" vertex="1">
          <mxGeometry x="354" y="80" width="120" height="40" as="geometry" />
        </mxCell>
        <mxCell id="j-uOjzAiipVmSamTyCxf-0" value="End" style="rounded=1;whiteSpace=wrap;html=1;fontSize=12;glass=0;strokeWidth=1;shadow=0;" parent="WIyWlLk6GJQsqaUBKTNV-1" vertex="1">
          <mxGeometry x="354.01" y="2970" width="120" height="40" as="geometry" />
        </mxCell>
        <mxCell id="j-uOjzAiipVmSamTyCxf-4" value="" style="edgeStyle=orthogonalEdgeStyle;rounded=0;orthogonalLoop=1;jettySize=auto;html=1;" parent="WIyWlLk6GJQsqaUBKTNV-1" source="j-uOjzAiipVmSamTyCxf-1" edge="1">
          <mxGeometry relative="1" as="geometry">
            <mxPoint x="414" y="300" as="targetPoint" />
          </mxGeometry>
        </mxCell>
        <mxCell id="j-uOjzAiipVmSamTyCxf-1" value="user_name = []&lt;div&gt;user_pw = []&lt;/div&gt;&lt;div&gt;admin = [adminkontak, admin1234]&lt;/div&gt;&lt;div&gt;contact = []&lt;/div&gt;&lt;div&gt;default_contact = [[&quot;Cek nomor&quot;,&quot;808],[&quot;Layanan Pencegahan Bunuh Diri&quot;,&quot;119&quot;]]&lt;/div&gt;&lt;div&gt;start = True&lt;/div&gt;" style="rounded=0;whiteSpace=wrap;html=1;" parent="WIyWlLk6GJQsqaUBKTNV-1" vertex="1">
          <mxGeometry x="287" y="150" width="254" height="100" as="geometry" />
        </mxCell>
        <mxCell id="j-uOjzAiipVmSamTyCxf-28" value="" style="edgeStyle=orthogonalEdgeStyle;rounded=0;orthogonalLoop=1;jettySize=auto;html=1;" parent="WIyWlLk6GJQsqaUBKTNV-1" source="j-uOjzAiipVmSamTyCxf-5" target="j-uOjzAiipVmSamTyCxf-27" edge="1">
          <mxGeometry relative="1" as="geometry" />
        </mxCell>
        <mxCell id="j-uOjzAiipVmSamTyCxf-5" value="Loop" style="ellipse;whiteSpace=wrap;html=1;" parent="WIyWlLk6GJQsqaUBKTNV-1" vertex="1">
          <mxGeometry x="354" y="300" width="120" height="80" as="geometry" />
        </mxCell>
        <mxCell id="j-uOjzAiipVmSamTyCxf-12" value="" style="edgeStyle=orthogonalEdgeStyle;rounded=0;orthogonalLoop=1;jettySize=auto;html=1;" parent="WIyWlLk6GJQsqaUBKTNV-1" source="j-uOjzAiipVmSamTyCxf-6" target="j-uOjzAiipVmSamTyCxf-11" edge="1">
          <mxGeometry relative="1" as="geometry" />
        </mxCell>
        <mxCell id="j-uOjzAiipVmSamTyCxf-6" value="" style="shape=parallelogram;perimeter=parallelogramPerimeter;whiteSpace=wrap;html=1;fixedSize=1;" parent="WIyWlLk6GJQsqaUBKTNV-1" vertex="1">
          <mxGeometry x="77.67" y="1390" width="200" height="100" as="geometry" />
        </mxCell>
        <mxCell id="j-uOjzAiipVmSamTyCxf-8" value="" style="endArrow=classic;html=1;rounded=0;" parent="WIyWlLk6GJQsqaUBKTNV-1" edge="1">
          <mxGeometry width="50" height="50" relative="1" as="geometry">
            <mxPoint x="263.67" y="1460" as="sourcePoint" />
            <mxPoint x="333.67" y="1460" as="targetPoint" />
          </mxGeometry>
        </mxCell>
        <mxCell id="j-uOjzAiipVmSamTyCxf-10" value="" style="shape=image;verticalLabelPosition=bottom;labelBackgroundColor=default;verticalAlign=top;aspect=fixed;imageAspect=0;image=data:image/png,iVBORw0KGgoAAAANSUhEUgAAAUIAAADWCAIAAAArTxwqAAAZOUlEQVR4Ae2du24dtxaGXadykcJFgMkLuHWlIkA6wU9wBAOCkUqlKqdSoRgJkEq1EKQIAgSByhTuhRQuYqRLEb9EnsAHi+S6kMO5cO/hzFD6g8Di8LK4+JPfkHPjftIt999XX3315ZdfLmcvtQT7qSLxcW194tpwtCMFnizoS+1hBPvjnVVbn/HakbqhAsBYxa+NQev2VSmEdqYAMNYOaR2z2v6rUtuG3j799MezbV3YW+3AWHukNgat21elSkM//Pjx4+/vfigtlsv/9umnfz7787UmXV2++XBzdtV1EvBpciiB8Xi12GAIGGuntY5Zbf9VqdJQGcav3w0y/+zff578+zaqnii9Pn3lMXYBn1waHxlt7QAYa4/VxqB1+6pU3dAgxt/9/Nmn959/F9f+6vzCYywBny6HEhiPj602dgSMtcNax6y2/13Xvf7lp4/vXtO/H3+n///6Nixvv/n2748/ft8RgS7px++9rhTvY+JF9Q8/Ulk3Sxs7UjwUoaR3soD+4s/36VSsnfe4Q8BY+782Bq3bDxgrWkTd3798TQoyrv4C+Pt3Fj8ql66TPcDhLGDskK1eZt9Frz//L74q1p579CFgrEOgdcxq+x8wlhmYJ2dS0GEsN7FoujbZMmQSxjxjd12M/QDGdHPr6W/aXQipAsBYtaiNQev28xh7XAnjn379RsWMQz0ygXEs0JFHwFgFbB2z2v73MdZZdAWMsajWoZqGgLEqUhuD1u2nGNuF9JIYf/3rX8mlte8jusX1389faIchxAoAY1ai61rHrLb/AWO+8/zRrqIHMNZ72lwq3BIbW1TrDbP4TnWXfeCk/feIQ8BYO782Bq3bT2djVW61EL3+gQm5LzcwVk1ax6y2/zvAuOt6L2Nq/z3iEDDWzq+NQev2d4Fx50jGpxE6bCkEjFWP1jGr7b8qhdDOFADG2iG1MWjdviqF0M4UAMbaIa1jVtt/VQqhnSkAjHfWIXAHCpQrAIzLNUMJKLAzBYDxzjoE7kCBcgWAcblmKAEFdqYAMN5Zh8AdKFCuADAu1wwloMDOFADGO+sQuAMFyhUAxuWaoQQU2JkCwDjqELen8ZsPN+b/y5Mu7IFsIm/efEC8V2lRHWgXSyv+Tdi8tpX4aDCteACMVxQbVUGBOgoA40hXzMbbrjJamXWH/IwG04oHwHhFsVEVFKijADCuoyusQoEVFQDGK4qNqqBAHQWAcR1dYRUKrKgAMF5RbFQFBeooAIzr6AqrUGBFBYDximKjKihQRwFgXEdXWIUCKyqwJMYruo2qoAAUUAWWxLj2lm617asqCEGBphQAxk11F5yFAjkFgHFOlRen9zdnV7kUxEEBo8DJ3c3F7QsTsVEQGOeEB8Y5VRDXUwAY9ySZjFjv2rgaxvRljPtA1zX25I6/W6bDl2fyqe39+XOX4fnt9ZsP5nzPxV3B5Ltcs3zw39+wEbLEBZ3VLq7XxyX/Gme8V3cvu64b8qfrSDH7PbaZo4wpccl7KO11xskD94WZrIN8dXLIEqmAzumoaq43iiTHpOqkoccdAuNy/R4Wxm6MyoiksR4NQTfsKM/99YUMwZhGDw+XUj2f315f3J6ffbg+fcWRpmBcL2fI/yUYrP1hf9KcbC/fLndaEfdMHv+hKFPtz1aK8dXlm7vz+HrHnSM4P1eqf8nCcKrmOzQEjMuVe0gYE1cyjt0sJ6yGyZNSHTbnp3c80xoanXxZeF6c3lPZaIRJwbjeqT5I7Q/7k+b0ln1+v7KgGKldAi6fwEb57y7PwoLl5dk9tV3OIydOB5eHlgb0X2wnRJo/YtnELRmMRF7ScKEtXBvnBKNBqZNALseBcTTsLk/cElRGZ25SDVQEDGgWcgM3FJfKc/BwngihfL1iZyiQ2h/2J83pLPYjOYb84bMYhYPabh3x4uTOJV1dXty+MJy8DOsLmrF5FePKjsy3wHioa4fja8+Wte1ry2i01cP4lOYcnk+o0n51Ybgzii9O793ADTSKo0yFRPjLV2XeonLZq9cUywdT+8P+pDmdPYqMZeRsHj++NpY8HuMuAByvKa4u+fqWFtJSxF9O09VvJGloDzDOd+xYbG3MatvXtvXHn6YdFZLhG425fnVhuDM2tLqm2XsaY2sqGCGH8/VONsVYcHmH/aGc9haXw8w64+tig+SPP8VETPLc+/KM7whwTHSNkIGTd19SvF2FmZyTjS7JIO6VFKqQF4vqnKj98ZfLdUBc4JBHc7CQHOr8LNgQh/fnzycxVjzItA7ifL2TDUgdG/YnzelM9yMphkgzfpJNPqkJFTbgUiPa1Y24BRQv622XpArEOZc6Ej+XMnigHWCcE45HWy7tqDjhkAK6MkzHJY9yG09XjFfR86r+RbUbx9GsGIb1QL1TbUk5HPYnzekt2/wUw+3SAMXyRa8775hbBpRGFu5e6sqZ1+Fh41tfjfwr9jkGGLMS8//WXvTWtq8trY9xeEZqr13llizV7ieoCIOry4u7S/vYuYdxnyWexATjpF5tcjaUGhz2J80ZzFG9mXbFGOuqoT+5eYx7NOaro2z2hr9dj2Tbd3Rk3+GjTR5kALNxTjYaJclVVi5beZzFyQ+y+Iatv7yUGSnCJrxiwTdpqfJkNOu0Jp4FAEbqlaxRgPi317qZ00rkT+KJseVITtqVYOwOb86uMkYcxv/rd0dQhi+Jg6vKMJmK/Nck49vRQWBcLuEDmI3LG40Se1YAGJf3DjAu1wwlqioAjMvlBcblmqFEVQWAcbm862Fc7htKQIENFcAtrg3FR9VQYBkFgPEyOsIKFNhQAWC8ofioGgosowAwXkZHWIECGyoAjDcUH1VDgWUUAMbL6AgrUGBDBYDxhuKjaiiwjALAeBkdYQUKbKgAMN5QfFQNBZZRABhHOiZfzNBXPu6LIsSvo4P5HIq/T3LfcrYSHw2mFQ+A8YpioyooUEcBYBzpill3nVl3SOdWZt0hP6PBtOIBMF5RbFQFBeooAIzr6AqrUGBFBYDximKjKihQRwFgXEdXWIUCKyoAjFcUG1VBgToKAOM6usIqFFhRAWC8otioCgrUUQAY19EVVqHAigoA4xXFRlVQoI4CwLiOrrAKBVZUABivKDaqggJ1FADGOV3pF4Cq/IZTrjLEtasAtpsv77v1tpsvwtj86tec3/syb9XLT66Va4ESu1AAGJd3w44xzgPpic2zTfDnSxlh6PcQk182NL+KbDJOBckT/hHWqbyUfkh+/alH57Yezqnw0DyzZDzU+HQ5YDytUZqjKYz9L3ee9n5xlxtVNP6KMnMN9u8hWJZiH7ilhvuvHa0DJeHwY66zihytzKxaBjMB40FpBhMawvjV+cXdy87/gvERszFLcfRgXQ3j0oq4hfYvMLZqzArjFldOJsJm9i2uMcZoRNbC2P6SeJgJ3eRw7n5h/Pr06vxCNiHydIWYmzfRAjtjJyyqNf/UCpnsX56kP5vupKUkvjQQKXx+TVL/excRUjXpzKmyUrDi+wySlOvYpeMwG5cr2tBszI2rh/HJXTy+ZfInRP2AvjzpCFE6HwVgDC1MVNZOnN9Zc/a5Wb2/DsvT2+s3STZXr5wQVY3In9R+djZ+fnt5+irUq3b0xJEa6blYJQIYl8sKjAc089fhz/0ankCiMe3un1GAMTbTlKPupGdN7CS3uDS+VyREBCxvEozTgpTNuSEBVz7JlsU4qpn2APKnJN9StwBJziBRgVoHwLhcWWBsNUu2s3KzKwMwB2OmOmfnIIwzi2r2R/y2qwN2oOtmYSxnirBEV4zdSlutSWUrBIBxucjAWDRzY1oWq4IBYzOFscxmA3YOxTis3vuOBcdlEpaASxD/fTZuhbS269zVgT6fE/9l3UExG5AMjG0nzQsDY9HJjlqHor+RxgCMY0ypYfU7YOdwjLuu69lkqk29oxgT1ckjK9dGtuPvyels7PF2pdYmGRjLkJwdaAlje/vX318Nt5e4tUIaR4z9zWQmYmV5eXU5gbGbzTh/9NpJ1s5RGPtLdJkbiWp2VS5fRzH21/ZcKujmKPV2/E34FOPweO9D1LoxUZdIA8blKraE8WTrMmROlkGGvSkAjMt7BBiXa4YSVRUAxuXy7hjjsALkh7FjbfOXsm6dqfdsxgogbb8KAOPyvlkP43LfUAIKbKgAXsbcUHxUDQWWUQAYL6MjrECBDRUAxhuKj6qhwDIKAONldIQVKLChAsA4Jz491OV3hnLpiIMCTgHcqS4fCOvdqS7CmDLjgVN5dz6EEsC4vBd3jHHmCbB5CTE3sc99i4tfk87K5V75lDccD9hDK2t1JJIeeutbpe5FTj0cKXd00ly5jq6ozAAwLtOLcreE8cszGe72UwFt9NxxWR/juZ6Q7wbjzAcM2ro5oZJ65UumOYZXzAOMy8VuCWPbuux4zUbaUiE8inEvf/zJQS85GzHXEyosGB9SUVJ7Sb3AOBEvOcQtrkQQd0gjLLcSzuWdHmHZ8ZqNzNgfwJiKhwvy/qI6v4eW/ehKPw/iD4nY2vj7pAHjnPOU1DPi82vSnHpN0+QzqUhkn2HtbxIzfeO+5cpcT2WzVo0Exjl5aaAshnHFRXWXQh6AMbQw5Pk9t6jxOSZzolCcw3KhPbfy9e5zz60hPbCoHlJmOL7JRXXvLlRoX34Q9xufghrnSFMJM52m6PI1N7vG8XM9oZplXuWzg3cnNuizOTfG/JlRL50B9ZR0cbvZnlux6noEjFWLuaH2MHYM50CaPwemoMZipakj2Jg757SQVq9m4CSVkv2l9twaqFfOFLIpAtVOmd36X09S4tSGAWBcLn5jGLuRp7Qk7R0YxEku3eyyl+Ai5mLs2JDLhHjynOsJVRgwDtPygMFjZmM68enVZjobv4h2CMpLsmosMC6XuymMCTB55pRp61x4UlBjU2kqYabzleJqr8/9dGfOL2TEHMY1xEeC8RJ7bmXqdb7x2cHfk7OL6hed30bTtDH2b+0jYFyueEMYJytYWh/64SitLsFY7gDLYtijmI/PYRz2x/Lr0ssT3ruLvfHAuNRxni3GC+y5lamXTj2hXTvac4uFSv8C41SR6eOGMJ5uzFyMpy0hx3YKAONy7YFxuWYoUVUBYFwu744xDuvA8RWpb7FZD+u9nHIxUGIPCgDj8l5YD+Ny31ACCmyoAN7i2lB8VA0FllEAGC+jI6xAgQ0VAMYbio+qocAyCgDjZXSEFSiwoQLAOCc+PdTld4ly6YiDAk4B3KkuHwjr3akuwpgy44FTeXc+hBLAuLwXd4xx7wmwYdu+66+Npgy9UprsQ/pStD+mZ86ZDwDTYv1jKdhPysZkXrpMXibNFjs+cpYsx1ezlAVgXK5kSxib1uURmjVe94Cxe8n5GIZntZT1KsrMhbb7C4zLtW8UY/cT4b0r7VnjdXuM8+egor6b1VK2WJSZC233FxiXa98oxvrRrG3yrPE6gbHuuaVfNXXurMEfCfEs6mnU/BxvPbLhsKjOOUlJvXsBPr8meftUnD3hgL6vaj5v0s+/bI2+uG2adXEXYWBc3g2NYSzDNDsQ7XgdlGIUY/340X64m99zKwBm6Ip34Uk9cFhW3XMr76duDOYYHncydXqDY2BcLnpjGEsDiefe3azjMTZnBz8ZSoUc0LMAZdD8Gs85078B+5s3MUhpQTErAWcozjbdUpPfZ97dnlupPnwMjFmJ+X9bxbgzw1RaOz24w04Xugod3BzH7a3DlCY7FvjiY5iJSyZA+SvvuZX1c697bhlpoiAwjuSYddA0xvG0NnNLvZT/QJfh2Qsnl9+UQV9c0eIHYlxtz60hP2VRTS3iE9OswbFNJmBcrnujGMdDlps9azb2G8ryXW4qEla5EZYm3o5+V2/YZCvKn10dsF/+L+Xn22A9m1P+pPbtpXuopmeTNwNTWegctHuSgXE8buYcNYSxR0j2lHrVb56O135aFEMjnm/z6pQu988oyV54EzMhv9lz6xiM6+y5lfdTZmMngc9jWxcps4MDYFzeCQ1hPN242RhPm0KOzRQAxuXSA+NyzVCiqgLAuFzeHWMc1rH2rvJQ+8x6e8/LxSH3EW8VAMZWjXnh9TCe5w9yQYGdKIDvjXfSEXADChyuADA+XDuUhAI7UQAY76Qj4AYUOFwBYJzTjp4G8UsOuXTEQQGnAG5xlQ+E9W5xFWFMmXGnurw7H0IJYFzeizvGePDRkX+8lHkQNev1D30p2qsVv4xVruDRJcgBfkkzvN2lh0dbHzEwS66R8pWSgHG5sO1h7Abf/TW/MGybPGtc7hlj987zMQzPUoAlK8rMher/BcblGjeHsf8Z4fTHhH3DZ43L/WK8wLpglgI8Sooyc6H6f4FxucaNYUxfL9B9sloY268jeFb0i17611+u87d+MXXx2cHa4fxDnePtxx8whLxa6Y2uPnx+TfJ+EpP8/QYH9LrDpoo/FmOfQZKGfF0jHhiXq9wUxoSK/yDpSIzl86aYzPwmOAGYQLV+IUjxOu4NxhaPGT3isKy6uc/z28tT/iBM/dcTh2NYv/Sa4XPNLMC4XN2GMLbYHImxTlO93QJYQsXS1tv5/A7pOF7zOzx08mSDg3/Jjps/Y5CMQVdUqpOAi46zzTiD0EeaOoFf3O5ucx9gPDhUBhPawTjq3UoY2++QP/A6NsZGN/eJ4/s4hSVuDGemI8hO5c19qApeaVNAMXZO6poi497qUVFHr167VojXP1QLDdFEMfv1j/6sYq82dUTGD6X6pbR6CcW8mdnYjXXxULPFuNJluccgjtf8UhMFyO3YySiZDsiOTO8qUWpQqpOAsxRnyyoQ+yD+y6KaYnZEMjDuDZHJiHZm46gpNWZjO5oJlexsTJzw1paER8CeynL+yNEsV1EOxbhzt+6EKOcDn1ZMvWMYd+bSl2uJ7Pizoc7G/hRD5wKpl8tt9RcYlysPjA0VfoMbt85MNuvJz/9u9Luk+/PnembxqHCRuYvq0HfOB54b/dkhuXI2Dmc2+rQ74/MtAPXzw/Up7Y+fYtyF106mFg7l4+uAEsC4XLRGMc43dMbUly84GhtjM5oViQsoAIzLRQTGk5oB40mJFs0AjMvl3DHG4U4vrwzH2kakhUXsxP2kMSsDacB4QJhK0cC4XNj1MC73DSWgwIYK4IHThuKjaiiwjALAeBkdYQUKbKgAMN5QfFQNBZZRABgvoyOsQIENFQDGOfHpoS6/k5RLRxwUcArgTnX5QFjvTnURxu7dQ/8MafMHTuWiosQxCgDjcvV2jHHvCbBh2xHem9spQ69URhN64XHyHclMuflR5n3MOaeh+YYfQU5gXN7JrWHcQ9c2eScYE8N8NnGnnmmS53puW/tQw8C4vGeBcblm4yXiLwfNh5BjxYCxqgOMVYu5IWBslTIvdUbbd9j4/HperPSB5Jj4pU6mnVLDa6f8PmlUtRh+NAFgXN7VrWGsIz5zccvATMmQvzZ2rMqinfKExbBdJFNY8uTqIR/iDOxVHmNvg/PkLD62OGBc3uMtYWxb5+4hpSTPhSGLMU+PXItQRwH/gS4lTQ0yYMwCHvp3SuFD7ZaWw3PjnGL98Z3LFeKmgUypo4LTpbz5LMa9SJl4zWwcz9i5BvR94IbLecEVi/3vl8rZfhxxwLi8n1udjXO71RyHccyVvTXlZn6+cOVb0INSD9oBxoOaRQnAOJJj1kGjGLvdbeJL0GNnY7cnllzW0vQ4uif2sLpuxmbajR23vU7wubd3l7kUH7b8OFKAcXk/t4SxnRX1YtW0ee7SlJjh2ZUC8lw3u/eV33fa5k+vyY0LPuhI9lUwz5RAE7W3E+3d5cuY1ok/PcOPIQIYl/dySxhPtm4uxpOGbIbcIlkmbZsR4WUUAMblOgLjKc3S5S7N2Lxz5VRZpB+gADAuF23HGOv6c7JZA4vYyXLzMrjrW11Ug+F5sh2aCxiXK7cexuW+oQQU2FABPDfeUHxUDQWWUQAYL6MjrECBDRUAxhuKj6qhwDIKAONldIQVKLChAsB4Q/FRNRRYRgFgvIyOsAIFNlQAGG8oPqqGAssoAIyX0RFWoMCGCgDjDcVH1VBgGQWA8TI6wgoU2FABYByJb7/+C28mu88MEe/3Bqqtg3nhPLym7j/taCU+GkwrHgDjFcVGVVCgjgLAONK19mwD++Ozeiuz7pCf0WBa8QAYryg2qoICdRQAxnV0hVUosKICwHhFsVEVFKijADCuoyusQoEVFQDGK4qNqqBAHQWAcR1dYRUKrKgAMF5RbFQFBeooAIzr6AqrUGBFBYDximKjKihQR4ElMa7jIaxCASgwoQAwnhAIyVBg/woA4/33ETyEAhMK7BbjL/58/9mfrye8RzIUgAJd1y2NsfsNIfqxTAl4meVQAuPxXde9ffrpn6e/oZegABSYUqAKxvSbug5X/XFdOZSA90wOJWA8/u2PJ5/ef/6diUEQCkCBvgJLY9zRb3M6eiXgK5VDCYzH+9Rn//7z5N+3fbcRAwWggCqwOMZqepEQTch/PFvEFIxAgYeqwN4xpitkrKsf6uhDuxZSoAWMcaNroc6GmYeqADB+qD2Ldj0iBVrAGIvqRzQg0dRDFNg7xrjFdUivoswjU2DnGOOB0yMbj2juQQrsGmNMxQf1KQo9OgV2jDFexnx0oxENPlCB/wM9JxnJtvmAIgAAAABJRU5ErkJggg==;" parent="WIyWlLk6GJQsqaUBKTNV-1" vertex="1">
          <mxGeometry x="111.67" y="1396.1399999999999" width="132" height="87.73" as="geometry" />
        </mxCell>
        <mxCell id="j-uOjzAiipVmSamTyCxf-16" value="" style="edgeStyle=orthogonalEdgeStyle;rounded=0;orthogonalLoop=1;jettySize=auto;html=1;" parent="WIyWlLk6GJQsqaUBKTNV-1" source="j-uOjzAiipVmSamTyCxf-11" target="j-uOjzAiipVmSamTyCxf-15" edge="1">
          <mxGeometry relative="1" as="geometry" />
        </mxCell>
        <mxCell id="j-uOjzAiipVmSamTyCxf-18" value="" style="edgeStyle=orthogonalEdgeStyle;rounded=0;orthogonalLoop=1;jettySize=auto;html=1;" parent="WIyWlLk6GJQsqaUBKTNV-1" source="j-uOjzAiipVmSamTyCxf-11" target="j-uOjzAiipVmSamTyCxf-17" edge="1">
          <mxGeometry relative="1" as="geometry" />
        </mxCell>
        <mxCell id="j-uOjzAiipVmSamTyCxf-19" value="" style="edgeStyle=orthogonalEdgeStyle;rounded=0;orthogonalLoop=1;jettySize=auto;html=1;" parent="WIyWlLk6GJQsqaUBKTNV-1" source="j-uOjzAiipVmSamTyCxf-11" target="j-uOjzAiipVmSamTyCxf-14" edge="1">
          <mxGeometry relative="1" as="geometry">
            <Array as="points">
              <mxPoint x="230" y="1630" />
              <mxPoint x="230" y="1630" />
            </Array>
          </mxGeometry>
        </mxCell>
        <mxCell id="j-uOjzAiipVmSamTyCxf-23" value="" style="edgeStyle=orthogonalEdgeStyle;rounded=0;orthogonalLoop=1;jettySize=auto;html=1;" parent="WIyWlLk6GJQsqaUBKTNV-1" source="j-uOjzAiipVmSamTyCxf-11" target="j-uOjzAiipVmSamTyCxf-22" edge="1">
          <mxGeometry relative="1" as="geometry" />
        </mxCell>
        <mxCell id="j-uOjzAiipVmSamTyCxf-25" value="" style="edgeStyle=orthogonalEdgeStyle;rounded=0;orthogonalLoop=1;jettySize=auto;html=1;" parent="WIyWlLk6GJQsqaUBKTNV-1" source="j-uOjzAiipVmSamTyCxf-11" target="j-uOjzAiipVmSamTyCxf-24" edge="1">
          <mxGeometry relative="1" as="geometry" />
        </mxCell>
        <mxCell id="j-uOjzAiipVmSamTyCxf-11" value="ans = Input(&quot;Pilih Fitur :&quot;)" style="shape=parallelogram;perimeter=parallelogramPerimeter;whiteSpace=wrap;html=1;fixedSize=1;" parent="WIyWlLk6GJQsqaUBKTNV-1" vertex="1">
          <mxGeometry x="87.67" y="1530" width="180" height="90" as="geometry" />
        </mxCell>
        <mxCell id="j-uOjzAiipVmSamTyCxf-134" value="" style="edgeStyle=orthogonalEdgeStyle;rounded=0;orthogonalLoop=1;jettySize=auto;html=1;" parent="WIyWlLk6GJQsqaUBKTNV-1" source="j-uOjzAiipVmSamTyCxf-14" target="j-uOjzAiipVmSamTyCxf-133" edge="1">
          <mxGeometry relative="1" as="geometry" />
        </mxCell>
        <mxCell id="j-uOjzAiipVmSamTyCxf-14" value="ans = 3" style="rhombus;whiteSpace=wrap;html=1;" parent="WIyWlLk6GJQsqaUBKTNV-1" vertex="1">
          <mxGeometry x="190" y="1660" width="80" height="80" as="geometry" />
        </mxCell>
        <mxCell id="j-uOjzAiipVmSamTyCxf-15" value="ans = 5" style="rhombus;whiteSpace=wrap;html=1;" parent="WIyWlLk6GJQsqaUBKTNV-1" vertex="1">
          <mxGeometry x="690" y="1535" width="80" height="80" as="geometry" />
        </mxCell>
        <mxCell id="Pe8v_tdV25wXCAUM1Yoh-33" value="" style="edgeStyle=orthogonalEdgeStyle;rounded=0;orthogonalLoop=1;jettySize=auto;html=1;" parent="WIyWlLk6GJQsqaUBKTNV-1" source="j-uOjzAiipVmSamTyCxf-17" target="j-uOjzAiipVmSamTyCxf-161" edge="1">
          <mxGeometry relative="1" as="geometry" />
        </mxCell>
        <mxCell id="Pe8v_tdV25wXCAUM1Yoh-34" value="" style="edgeStyle=orthogonalEdgeStyle;rounded=0;orthogonalLoop=1;jettySize=auto;html=1;" parent="WIyWlLk6GJQsqaUBKTNV-1" source="j-uOjzAiipVmSamTyCxf-17" target="j-uOjzAiipVmSamTyCxf-159" edge="1">
          <mxGeometry relative="1" as="geometry" />
        </mxCell>
        <mxCell id="j-uOjzAiipVmSamTyCxf-17" value="ans = 4" style="rhombus;whiteSpace=wrap;html=1;" parent="WIyWlLk6GJQsqaUBKTNV-1" vertex="1">
          <mxGeometry x="505" y="1660" width="80" height="80" as="geometry" />
        </mxCell>
        <mxCell id="j-uOjzAiipVmSamTyCxf-81" value="" style="edgeStyle=orthogonalEdgeStyle;rounded=0;orthogonalLoop=1;jettySize=auto;html=1;" parent="WIyWlLk6GJQsqaUBKTNV-1" source="j-uOjzAiipVmSamTyCxf-22" target="j-uOjzAiipVmSamTyCxf-80" edge="1">
          <mxGeometry relative="1" as="geometry" />
        </mxCell>
        <mxCell id="j-uOjzAiipVmSamTyCxf-22" value="ans = 1" style="rhombus;whiteSpace=wrap;html=1;" parent="WIyWlLk6GJQsqaUBKTNV-1" vertex="1">
          <mxGeometry x="-262" y="1535" width="80" height="80" as="geometry" />
        </mxCell>
        <mxCell id="j-uOjzAiipVmSamTyCxf-123" value="" style="edgeStyle=orthogonalEdgeStyle;rounded=0;orthogonalLoop=1;jettySize=auto;html=1;" parent="WIyWlLk6GJQsqaUBKTNV-1" source="j-uOjzAiipVmSamTyCxf-24" target="j-uOjzAiipVmSamTyCxf-122" edge="1">
          <mxGeometry relative="1" as="geometry" />
        </mxCell>
        <mxCell id="j-uOjzAiipVmSamTyCxf-24" value="ans = 2" style="rhombus;whiteSpace=wrap;html=1;" parent="WIyWlLk6GJQsqaUBKTNV-1" vertex="1">
          <mxGeometry x="-16.33" y="1660" width="80" height="80" as="geometry" />
        </mxCell>
        <mxCell id="j-uOjzAiipVmSamTyCxf-32" value="" style="edgeStyle=orthogonalEdgeStyle;rounded=0;orthogonalLoop=1;jettySize=auto;html=1;" parent="WIyWlLk6GJQsqaUBKTNV-1" source="j-uOjzAiipVmSamTyCxf-26" target="j-uOjzAiipVmSamTyCxf-30" edge="1">
          <mxGeometry relative="1" as="geometry" />
        </mxCell>
        <mxCell id="j-uOjzAiipVmSamTyCxf-26" value="" style="shape=parallelogram;perimeter=parallelogramPerimeter;whiteSpace=wrap;html=1;fixedSize=1;" parent="WIyWlLk6GJQsqaUBKTNV-1" vertex="1">
          <mxGeometry x="294" y="410" width="240" height="170" as="geometry" />
        </mxCell>
        <mxCell id="j-uOjzAiipVmSamTyCxf-27" value="" style="shape=image;verticalLabelPosition=bottom;labelBackgroundColor=default;verticalAlign=top;aspect=fixed;imageAspect=0;image=data:image/png,iVBORw0KGgoAAAANSUhEUgAAAQcAAADcCAIAAADyR/OoAAAS9UlEQVR4Ae1dvW4dtxJ27cpFChcB9gnUqlKX6h74Ca5g4MBIpVKVUqmQjQRIpVoIXAQBjEClC/cHKW4RI50L6yXyBL4Y/gxnuKTE3bN/3P2MIOJyh8PhN/PxZ5c8+6zBPyAABDQCz/QlroAAEGjACgQBEIgRACtiRHANBKphxdv3z/99/z0cBgQmQGBEVvz86c+Hh19/HqIRb98///blxYeg6uTu5urzze51wwl7jy858Xh+0IgUEGAEFsOKH3/65+G3P35kw0TizXf/fnn+1xuRY8lwedaEhL1ryNAhX+pEGgg4BEZkRTeM86z48PHZt48vI23Xl1efKfobTlgBvuTE4/mRWlwCgaYpegb1wx9///npF/r/wwP998/vP1js3vz+28OnN80vv9p8Spt/lG8koxmUlQ93rTzxwWn2pUIVTfPyazxQwHFAYFwESsYKx4dPvxhTiANuquPj2y4e3nx6+NPJWJtJUq0rnLwgQ5DPjRXvXugVxbhwQDsQ6DBW8PjQNHboIPRMlHPcU74Qa8wYwne9/N8/+QWCls+wgtbZ//vuLXwFBCZEoHSsEOEeoplYEaK8ZXVyrAjyQQ+VBCta+CFjLgR6sCLMlCZgRYMZ1FyhseF6O7NCzpqGZEVDZBMjEvvk5dcvz76+40skgMDoCJSygp8OySlThhU0NQry9HxJrM5zM6jGrkPix1xN0ySfzI4ODCrYMAKlrEj14lPBRm/xMFxMhTbqKX9fMScrmqa14wOuAwIjIlDDWGGaj92BI0YBVGsESlihS+AKCKwdAbBi7R5G+7ojAFZ0xwwl1o4AWLF2D6N93REAK7pjhhJrRwCsWLuH0b7uCIAV3TFDibUjAFas3cNoX3cEwIrumKHE2hEAK9buYbSvOwJgRXfMUGLtCJSw4uz+9uqz/u/+VdM0Q+Wb3+nQ+sPvdyDf/o7JmDi83l9E/jW/tdXUnt+bvCWs6K0cBYFAlQiUsGKoMSGnB2OF+G2rMccE+o2slP7ax4Sc/b0ZWcKK3spREAhUiQBYUaXbYPSoCIAVo8IL5VUiAFZU6TYYPSoCYMWo8EJ5lQiAFVW6DUaPigBYMSq8UF4lAmBFlW6D0aMiAFaMCi+UV4kAWFGl22D0qAiAFaPCC+VVItCBFbTbxHyKrsqGwuj1I3B2f3txdzpAO8GKAUCEimUgsGlWRN/SNltx6dvb7p/dQXnYn/gMIy96kWjQa8k3zenuIPeW8ggZ5d9emXMmeXsekc/b480Of7XBpr1s0qtz3gbrm5xrb2LP8ufb82uux6pizU3TvDq3By2MSNRMLracBFjBUWUjL7Di5O7m4m4fu/Nwc+GDxhymCb5vyys3qy8UU13tMVpHobQnL5+3R9VuLwQrTF1sPMWxt8fUa9pIMo/pT1tF+/nv97tDxBMPLOHg0wkTF5G1aVZQ4+8vXZS/3l8oX57uDuQ8CZCJkv3u3vtbBJkZFmJ55eECVuTtScffo/aoyt0FG0yJEJpWDw+Jhu109yn9aavODD5U1gyApmoeK4h+YlRJGbmAPOn0o8ypcV1h/He6O1CXeXJ3c35NbnY+8wEkI8alqS+kg7VqrEjJK0DLWGFsaNuTjr/H7FF1+wtnZKQtumzsxO/i7vQp/e2CYrKk2utYQVOvQBVv1fL+ghXMh8szswywrKCACKHvulUXJSRm5h6eCY0hVVteuVtFCcWTPM5mZy/cy3pukJixJy3/iD2qar4wBu+4aS6fa2E5ygmsSLXXiDoxLkaJ68srN8OUw4JhxR3fUiUWeLFlVvhoeL2/ONxcEAd8TkiEjtOFvp9wUxwHVnBBJa/83WKFn8ezlFeSsacl72Y4J4aT2h7WqRNksGGj6rB9vUGWcgQrqKKUficWypkfpmA7xchg19+3njCyxBLTYIWLY+6SvfvDtJu96/tmM3c67E+YFZRIyCuHl7MicJLDjhNKZdYeJSUunMGRtugyAPKU/nZBOT4E0vIzKEZS2LTEJFihvGLhoGjgx5Qu4eb63Nud3d/srt3ryJy8Ut2BFaGcd087/kgmRC110sGeUD5KKRr7FZTWQyU8yZ/S37KK2qhmhv5xk1pt82ASWbecSw/70RZVuNomp7q1tW++geM/rcemrguUUdJcX9LzK3pJ3woOejxvNb/a+VekuptsFwk9tLeF/nr3JOUVK4Q9UoFOMyvsAoDHN8rXT2bNFCvTXtYZW6XbKCeTzApLuRh21riQhIf9aHMqZAXHbmi8geO/8h2FvWf9raLEkMH80oxwudfE8UFFbPfJbzlIhuJJdasUhTl7TjPymhXBHm9E+69khftxOj/xM8SwJnFfnmkv641YQZdRL+M1KIgsJpEkK11CYsusWAL+sGGJCIAVS/QKbJoXAbBiXvxR+xIRmIMVS8QBNgGBERDosNoeoXaoBAJLRACsWKJXYNO8CIAV8+KP2peIAFixRK/ApnkRACvmxR+1LxEBsGKJXoFN8yIAVsyLP2pfIgJgxRK9ApvmRQCsmBd/1L5EBMCKJXoFNs2LQAkraH91dCrF7OMfKh/fUMU3VH2AmR3yYnv8Ufm9qVXCit7KURAIVIlACSuGGhNyejBWYKw4akzIjS29GVnCit7KURAIVIkAWFGl22D0qAiAFaPCC+VVIgBWVOk2GD0qAmDFqPBCeZUIgBVVug1Gj4oAWDEqvFBeJQJgRZVug9GjIgBWjAovlFeJAFhRpdtg9KgIdGCF/rXTUa2CciDQA4E5fiUNrOjhKBSZEAGwYkKwUVUlCIAVlTgKZk6IAFgxIdioqhIEwIpKHAUzJ0QArJgQbFRVCQJgRSWOgpkTIgBWTAg2qqoEAbCiEkfBzAkRACsmBBtVVYIAWFGJo2DmhAiAFROCjaoqQQCsqMRRMHNCBMCKCcFGVZUgMAcrKoEGZgKBYxHocL7i2KpQHghUggBYUYmjYOaECIAVE4KNqipBAKyoxFEwc0IEOrACJ1Qn9Auq6oHAHM+gOrGChN0Xki7uTp9uYVf5pzVCYnMIVMEK8zWnlmtO7m6uPt9mqHK6O+RuKUX0gRjzFTKV2/Pi1fnnAbX1NALFjkegUlbYoN+fgxXHhwA0tBCokhUndzfn103TUN+8pLGihS4y6kSgSlZ4qMdkhVifXB32J77KRuabBY/hJ41d7otscj5GwpdnocjlGetBYsEIgBWplYCJYxPu5DpaezhiSB5SmmWsi+NViuODJYNhjuTMgsNi46aBFQlW0Do+Hh/4+82hv29jl2JFeFQQq9146C24+W3P9jR2rPcV1N2GwNLGyZ5b32mOegYVB7dZwMQrGT2e2Orjgtp4sCJy0mIvwYouY4Whh/+ic2KhD1YsNtA7GQZWJFhhl9R+zSDWA9eXambVQhqsaEFSZUadrLi+5A478eSHHNFlBuXfnZMqXk7IKsIS2TBEyttbblXtH0OxHsygqiQFPV/JPPHv2J451hWPmFjKikdUtG/FC4PU0qJdCjnVIQBWdHAZTZB4MGmahsaT3JOADmohujQEqmDFcnYHRjMoUGJp8TyMPXOwYhjLoQUILB6BDuuKxbcFBgKBYRAAK4bBEVrWhABYsSZvoi3DIABWDIMjtKwJgQ6soMf8YY/dmkBAW9aBwBzPoDqxwrwpsy+wi143dpVfhxvRikERqIIVidcC9ELN7bxIDjtl77YFhdR2j0EhziqztcvXgmFzbrYQbkyAQJ2suL7knyCI3zc7zMpZwZQzb+jClqeu4JfVKLSe3N1c3O3P1dvxxEkmUQLJiRCokxUSHOpxObL5RlmM6rK0zWk6VpzuDmS2dgBYwR6cM6GdcoQlY622deAmDEwL9GCFiEitU28KJDE9eTODTMg0d9W8KGG12axOc7+2cr+D3VZk5oc5eygf58JT8B6XVz0rjp5BcYiLgxa5KKQz3LyMMWQIY0sZD723wrik6mJmUiI8XVAygkiUf3vlHuhF9via8Lc7ApWzwpyC8J2rbH1ZjKpoE1Gl8kUUyhribr6sRqeBhL3ZsqBhxR3FeqBE05iBJcwSw/BSZqe2GldPI1AzKwwlVPSE9spQC7lxSkcVz2qyUeh2j4vhJcyUymq0Fuh6abhzY46dNXH37+3V8mCFx2Wsv9WyggJFd6gKorIY1dFmzks8OY/nPj4aQ8pqNEZSWEfrEDcLcjMoI8BTNYwVyrUTXFTKCtOnhjl9G6iyGFWsoCKyz3YzHHtU1Y4J8piRoaU8hJRZ4ZTY5shgfw3R1kvawg4AFrBHnfzhJ2V/xNJ2vcgpRaBKVpiIEdOYxG8el7Mi6JGTsdCdH/Yn4kcMRNWXZyLf4G24ageBMLNqe+KVfkdBAqSWSC6i3xw9v/I/xJa2B6xooztETpWsKGh4GSsKFEFkgwiAFRt0Opr8BAJVsMJNcuQMJ9ssO90305gi+awi3NguAnOwYrtoo+UbQ6DDjo+NIYPmbhcBsGK7vkfLcwiAFTlkkL9dBMCK7foeLc8h0IEV9JhIbGfIaUQ+EJgJgTmeQXViRdcnrV3lZ8Id1S4ZgSpYETZROyhF6Gd+/7js3bbmp956lPSa2Stl93Q8tgsrWfaITNVevwnqCH0o+jgCdbJCtIk2CCU2HXVmRbxNVVTRTvptS+074+QQK7hrMMxMNHmcqjeptXpWhO3fyn8dWaHCTilKXszKinhjedJCZB6DQPWsyARoJ1YkhcUG2NZkKa5Uk0oPX0JPeMZANZ5fm62yZj7mz+VlXKn1i+9m5PVQEb8dWA4sMj9UndejPgXonpGYoNmb8+s3u2t5SjZjf23Z1bLCHnvgb23FuCcDPRayh+92iZ/2oFD226hIlT934TSUsyJzztvo5A3w1JZHH8opVkh7MnpM6DPTyFpHDNkuSnuZjJ7MOXVSSDM6W+ryTG2Ab4FcYUa1rGCs5Ukgziz8Lh53nNFoEB2caEVtOSuCReqct4zsghkR22l6d09X9/m/wFhPHj1YCf0kEOgnfF9kD6v1zadSxhhKeILJFteaFsgc14Sx3ld4T+etY99IkWSmFDBpFyWxsFl5++mHm4eEYBKHhLxCbSRHD93mMc3qcX12XKNXlPmr9QuhtB4ftSzIw4IYK0gnh3JaD5VP2e/1cylKgBUMd0jMy4qWS9hhwcJEyrHC9qbCr9FY0Srpw8Lf0FEbWKEiT54gLTPPq49+XYGzc5+KDQZY0WAesYKPjEdjjrj0NWTs983nVoAVHrHo71ysMP266siNYeywyEx9SV73ZdVMTPSpuoS98mHB97gz9p2rHROkThNhfn5fZh6rD2HNWTaR0aOimWTcLCvL9oyejP2++VyKEq2OKTK1pssqZ1CGCb7Pkw9YAvLssJCVSElW2MPT4bWA6lZdVNnIFt2tj3IzDvAcSQQfBZCTl+e8y8xji7uyIpr5hFUT1evtMQl3K2tP0n6wgj3zRGKusSJjVtbNGflNZKdmVqvq44fyYpVjRUHjwYoESNTHy6FVTpAS4tvNqoIVbtBPLAfbjhOTnCL5toY150QzKN5FsuY292jbHKzoYSaKAIEaEeiwrqixebAZCPRAAKzoARqKrBwBsGLlDkbzeiAAVvQADUVWjkAHVuh3ZyvHBc2rEIE5nkGBFRUGyqZMBis25W40tggBsKIIJghtCgGwYlPuRmOLEAArimCC0KYQACs25W40tggBsKIIJghtCgGwYlPuRmOLEAArimCC0KYQACs25W40tggBsKIIJghtCgGwYlPuRmOLEAArimCC0KYQACs25W40tgiBOVhRZBiEgED9CHQ4X1F/Y9ECIFCEAFhRBBOENoUAWLEpd6OxRQiAFUUwQWhTCIAVm3I3GluEAFhRBBOENoUAWLEpd6OxRQiAFUUwQWhTCIAVm3I3GluEQAkrxIdz/Bd3zLd2hsqPP21IHxkyH/iiDzX4GvnLQ9EHgZCvIOqFm/hMggfcfAyg9vwiBqSESliRKoc8ILBeBEpYMdSYkNODsWLmsbH2MSFnf2/alrCit3IUBAJVIgBWVOk2GD0qAmDFqPBCeZUIgBVVug1Gj4oAWDEqvFBeJQJgRZVug9GjIgBWjAovlFeJAFhRpdtg9KgIgBWjwgvlVSIAVlTpNhg9KgJgxajwQnmVCIAVVboNRo+KwNSsePv++b/vvx+1SVAOBI5EoIwVp7vD7dVhf9JwwlbLl5x4PJ/uvvz65dnXd0eajeJAYEQEOrCCThqZ6DdHjoxNfMkJaypfckI24d2Lb1+e//VGZiENBBaEQBkrGjoawefvAis657uWf/j47NvHlwuCAaYAAYFAIStEiUGSNFy8+DCIKigBAkMjMBMraHWBSdTQzoS+gRCYkRVYcw/kQ6gZGgGwYmhEoa9+BGZkBWZQ9YfPSlswEyuw2l5pPK2jWfOwAk9m1xE9a23FHKzAQLHWaFpLu6ZnBXZ8rCV21tuOqVmB3YHrjaX1tGxqVqwHObRkvQiAFev1LVrWFwGwoi9yKLdeBMCK9foWLeuLwP8BFpBwaiWRdukAAAAASUVORK5CYII=;" parent="WIyWlLk6GJQsqaUBKTNV-1" vertex="1">
          <mxGeometry x="324.34" y="420" width="179.33" height="150" as="geometry" />
        </mxCell>
        <mxCell id="j-uOjzAiipVmSamTyCxf-29" value="" style="endArrow=classic;html=1;rounded=0;" parent="WIyWlLk6GJQsqaUBKTNV-1" edge="1">
          <mxGeometry width="50" height="50" relative="1" as="geometry">
            <mxPoint x="520" y="540" as="sourcePoint" />
            <mxPoint x="590" y="540" as="targetPoint" />
          </mxGeometry>
        </mxCell>
        <mxCell id="j-uOjzAiipVmSamTyCxf-36" value="" style="edgeStyle=orthogonalEdgeStyle;rounded=0;orthogonalLoop=1;jettySize=auto;html=1;entryX=0.5;entryY=0;entryDx=0;entryDy=0;" parent="WIyWlLk6GJQsqaUBKTNV-1" source="j-uOjzAiipVmSamTyCxf-30" target="j-uOjzAiipVmSamTyCxf-33" edge="1">
          <mxGeometry relative="1" as="geometry">
            <Array as="points">
              <mxPoint x="414" y="750" />
              <mxPoint x="620" y="750" />
            </Array>
          </mxGeometry>
        </mxCell>
        <mxCell id="j-uOjzAiipVmSamTyCxf-41" value="" style="edgeStyle=orthogonalEdgeStyle;rounded=0;orthogonalLoop=1;jettySize=auto;html=1;" parent="WIyWlLk6GJQsqaUBKTNV-1" source="j-uOjzAiipVmSamTyCxf-30" target="j-uOjzAiipVmSamTyCxf-40" edge="1">
          <mxGeometry relative="1" as="geometry" />
        </mxCell>
        <mxCell id="j-uOjzAiipVmSamTyCxf-30" value="log = Input(&quot;Pilih Fitur :&quot;)" style="shape=parallelogram;perimeter=parallelogramPerimeter;whiteSpace=wrap;html=1;fixedSize=1;" parent="WIyWlLk6GJQsqaUBKTNV-1" vertex="1">
          <mxGeometry x="324.34" y="610" width="180" height="90" as="geometry" />
        </mxCell>
        <mxCell id="j-uOjzAiipVmSamTyCxf-54" value="" style="edgeStyle=orthogonalEdgeStyle;rounded=0;orthogonalLoop=1;jettySize=auto;html=1;" parent="WIyWlLk6GJQsqaUBKTNV-1" source="j-uOjzAiipVmSamTyCxf-33" target="j-uOjzAiipVmSamTyCxf-52" edge="1">
          <mxGeometry relative="1" as="geometry" />
        </mxCell>
        <mxCell id="j-uOjzAiipVmSamTyCxf-33" value="log = 2" style="rhombus;whiteSpace=wrap;html=1;" parent="WIyWlLk6GJQsqaUBKTNV-1" vertex="1">
          <mxGeometry x="580" y="760" width="80" height="80" as="geometry" />
        </mxCell>
        <mxCell id="j-uOjzAiipVmSamTyCxf-50" value="" style="edgeStyle=orthogonalEdgeStyle;rounded=0;orthogonalLoop=1;jettySize=auto;html=1;" parent="WIyWlLk6GJQsqaUBKTNV-1" source="j-uOjzAiipVmSamTyCxf-46" target="j-uOjzAiipVmSamTyCxf-48" edge="1">
          <mxGeometry relative="1" as="geometry" />
        </mxCell>
        <mxCell id="j-uOjzAiipVmSamTyCxf-37" value="log = 1" style="rhombus;whiteSpace=wrap;html=1;" parent="WIyWlLk6GJQsqaUBKTNV-1" vertex="1">
          <mxGeometry x="139.99999999999997" y="770" width="80" height="80" as="geometry" />
        </mxCell>
        <mxCell id="j-uOjzAiipVmSamTyCxf-39" value="" style="edgeStyle=orthogonalEdgeStyle;rounded=0;orthogonalLoop=1;jettySize=auto;html=1;entryX=0.5;entryY=0;entryDx=0;entryDy=0;exitX=0.5;exitY=1;exitDx=0;exitDy=0;" parent="WIyWlLk6GJQsqaUBKTNV-1" source="j-uOjzAiipVmSamTyCxf-30" target="j-uOjzAiipVmSamTyCxf-37" edge="1">
          <mxGeometry relative="1" as="geometry">
            <mxPoint x="330" y="710" as="sourcePoint" />
            <mxPoint x="393" y="790" as="targetPoint" />
            <Array as="points">
              <mxPoint x="414" y="720" />
              <mxPoint x="180" y="720" />
            </Array>
          </mxGeometry>
        </mxCell>
        <mxCell id="j-uOjzAiipVmSamTyCxf-43" value="" style="edgeStyle=orthogonalEdgeStyle;rounded=0;orthogonalLoop=1;jettySize=auto;html=1;entryX=1;entryY=0.5;entryDx=0;entryDy=0;exitX=1;exitY=0.5;exitDx=0;exitDy=0;" parent="WIyWlLk6GJQsqaUBKTNV-1" source="j-uOjzAiipVmSamTyCxf-40" target="j-uOjzAiipVmSamTyCxf-0" edge="1">
          <mxGeometry relative="1" as="geometry">
            <mxPoint x="414.34000000000015" y="900" as="targetPoint" />
            <Array as="points">
              <mxPoint x="530" y="825" />
              <mxPoint x="530" y="710" />
              <mxPoint x="1100" y="710" />
              <mxPoint x="1100" y="2990" />
            </Array>
          </mxGeometry>
        </mxCell>
        <mxCell id="j-uOjzAiipVmSamTyCxf-40" value="log = 3" style="rhombus;whiteSpace=wrap;html=1;" parent="WIyWlLk6GJQsqaUBKTNV-1" vertex="1">
          <mxGeometry x="374.34" y="785" width="80" height="80" as="geometry" />
        </mxCell>
        <mxCell id="j-uOjzAiipVmSamTyCxf-45" value="" style="endArrow=classic;html=1;rounded=0;" parent="WIyWlLk6GJQsqaUBKTNV-1" edge="1">
          <mxGeometry width="50" height="50" relative="1" as="geometry">
            <mxPoint x="280" y="630" as="sourcePoint" />
            <mxPoint x="340" y="630" as="targetPoint" />
          </mxGeometry>
        </mxCell>
        <mxCell id="j-uOjzAiipVmSamTyCxf-47" value="" style="endArrow=classic;html=1;rounded=0;" parent="WIyWlLk6GJQsqaUBKTNV-1" edge="1">
          <mxGeometry width="50" height="50" relative="1" as="geometry">
            <mxPoint x="50" y="870" as="sourcePoint" />
            <mxPoint x="110" y="870" as="targetPoint" />
          </mxGeometry>
        </mxCell>
        <mxCell id="j-uOjzAiipVmSamTyCxf-68" value="" style="edgeStyle=orthogonalEdgeStyle;rounded=0;orthogonalLoop=1;jettySize=auto;html=1;" parent="WIyWlLk6GJQsqaUBKTNV-1" source="j-uOjzAiipVmSamTyCxf-48" target="j-uOjzAiipVmSamTyCxf-67" edge="1">
          <mxGeometry relative="1" as="geometry" />
        </mxCell>
        <mxCell id="j-uOjzAiipVmSamTyCxf-48" value="match_pw = input(&quot;Masukkan password : &quot;)" style="shape=parallelogram;perimeter=parallelogramPerimeter;whiteSpace=wrap;html=1;fixedSize=1;" parent="WIyWlLk6GJQsqaUBKTNV-1" vertex="1">
          <mxGeometry x="90" y="960" width="180" height="50" as="geometry" />
        </mxCell>
        <mxCell id="j-uOjzAiipVmSamTyCxf-49" value="" style="endArrow=classic;html=1;rounded=0;" parent="WIyWlLk6GJQsqaUBKTNV-1" edge="1">
          <mxGeometry width="50" height="50" relative="1" as="geometry">
            <mxPoint x="50" y="960" as="sourcePoint" />
            <mxPoint x="110" y="960" as="targetPoint" />
          </mxGeometry>
        </mxCell>
        <mxCell id="j-uOjzAiipVmSamTyCxf-51" value="" style="edgeStyle=orthogonalEdgeStyle;rounded=0;orthogonalLoop=1;jettySize=auto;html=1;" parent="WIyWlLk6GJQsqaUBKTNV-1" source="j-uOjzAiipVmSamTyCxf-37" target="j-uOjzAiipVmSamTyCxf-46" edge="1">
          <mxGeometry relative="1" as="geometry">
            <mxPoint x="180" y="850" as="sourcePoint" />
            <mxPoint x="180" y="960" as="targetPoint" />
          </mxGeometry>
        </mxCell>
        <mxCell id="j-uOjzAiipVmSamTyCxf-46" value="match_un = input(&quot;Masukkan username : &quot;)" style="shape=parallelogram;perimeter=parallelogramPerimeter;whiteSpace=wrap;html=1;fixedSize=1;" parent="WIyWlLk6GJQsqaUBKTNV-1" vertex="1">
          <mxGeometry x="90" y="870" width="180" height="50" as="geometry" />
        </mxCell>
        <mxCell id="j-uOjzAiipVmSamTyCxf-56" value="" style="edgeStyle=orthogonalEdgeStyle;rounded=0;orthogonalLoop=1;jettySize=auto;html=1;" parent="WIyWlLk6GJQsqaUBKTNV-1" source="j-uOjzAiipVmSamTyCxf-52" target="j-uOjzAiipVmSamTyCxf-55" edge="1">
          <mxGeometry relative="1" as="geometry" />
        </mxCell>
        <mxCell id="j-uOjzAiipVmSamTyCxf-52" value="PUT &quot;Silahkan Isi&amp;nbsp;&lt;div&gt;Pertanyaan berikut ini :&lt;/div&gt;" style="shape=parallelogram;perimeter=parallelogramPerimeter;whiteSpace=wrap;html=1;fixedSize=1;" parent="WIyWlLk6GJQsqaUBKTNV-1" vertex="1">
          <mxGeometry x="518" y="865" width="204" height="55" as="geometry" />
        </mxCell>
        <mxCell id="j-uOjzAiipVmSamTyCxf-53" value="" style="endArrow=classic;html=1;rounded=0;" parent="WIyWlLk6GJQsqaUBKTNV-1" edge="1">
          <mxGeometry width="50" height="50" relative="1" as="geometry">
            <mxPoint x="710" y="900" as="sourcePoint" />
            <mxPoint x="780" y="900" as="targetPoint" />
          </mxGeometry>
        </mxCell>
        <mxCell id="j-uOjzAiipVmSamTyCxf-58" value="" style="edgeStyle=orthogonalEdgeStyle;rounded=0;orthogonalLoop=1;jettySize=auto;html=1;" parent="WIyWlLk6GJQsqaUBKTNV-1" source="j-uOjzAiipVmSamTyCxf-55" target="j-uOjzAiipVmSamTyCxf-57" edge="1">
          <mxGeometry relative="1" as="geometry" />
        </mxCell>
        <mxCell id="j-uOjzAiipVmSamTyCxf-55" value="add_un = input(&quot;Masukkan&amp;nbsp;&lt;div&gt;username : &quot;)&lt;/div&gt;" style="shape=parallelogram;perimeter=parallelogramPerimeter;whiteSpace=wrap;html=1;fixedSize=1;" parent="WIyWlLk6GJQsqaUBKTNV-1" vertex="1">
          <mxGeometry x="518" y="950" width="204" height="55" as="geometry" />
        </mxCell>
        <mxCell id="j-uOjzAiipVmSamTyCxf-60" value="" style="edgeStyle=orthogonalEdgeStyle;rounded=0;orthogonalLoop=1;jettySize=auto;html=1;" parent="WIyWlLk6GJQsqaUBKTNV-1" source="j-uOjzAiipVmSamTyCxf-57" target="j-uOjzAiipVmSamTyCxf-59" edge="1">
          <mxGeometry relative="1" as="geometry" />
        </mxCell>
        <mxCell id="j-uOjzAiipVmSamTyCxf-57" value="add_pw = input(&quot;Masukkan&amp;nbsp;&lt;div&gt;password : &quot;)&lt;/div&gt;" style="shape=parallelogram;perimeter=parallelogramPerimeter;whiteSpace=wrap;html=1;fixedSize=1;" parent="WIyWlLk6GJQsqaUBKTNV-1" vertex="1">
          <mxGeometry x="518" y="1030" width="204" height="55" as="geometry" />
        </mxCell>
        <mxCell id="j-uOjzAiipVmSamTyCxf-62" value="" style="edgeStyle=orthogonalEdgeStyle;rounded=0;orthogonalLoop=1;jettySize=auto;html=1;" parent="WIyWlLk6GJQsqaUBKTNV-1" source="j-uOjzAiipVmSamTyCxf-59" target="j-uOjzAiipVmSamTyCxf-61" edge="1">
          <mxGeometry relative="1" as="geometry" />
        </mxCell>
        <mxCell id="j-uOjzAiipVmSamTyCxf-59" value="user_name.append(add_un)&lt;div&gt;user_pw.append(add_pw_&lt;/div&gt;" style="whiteSpace=wrap;html=1;" parent="WIyWlLk6GJQsqaUBKTNV-1" vertex="1">
          <mxGeometry x="535" y="1110" width="170" height="60" as="geometry" />
        </mxCell>
        <mxCell id="j-uOjzAiipVmSamTyCxf-61" value="PUT &quot;Akun anda telah dibuat,&lt;div&gt;silahkan pilih opsi login&amp;nbsp;&lt;/div&gt;&lt;div&gt;untuk masuk&quot;&lt;/div&gt;" style="shape=parallelogram;perimeter=parallelogramPerimeter;whiteSpace=wrap;html=1;fixedSize=1;" parent="WIyWlLk6GJQsqaUBKTNV-1" vertex="1">
          <mxGeometry x="520" y="1190" width="200" height="60" as="geometry" />
        </mxCell>
        <mxCell id="j-uOjzAiipVmSamTyCxf-63" value="" style="endArrow=classic;html=1;rounded=0;" parent="WIyWlLk6GJQsqaUBKTNV-1" edge="1">
          <mxGeometry width="50" height="50" relative="1" as="geometry">
            <mxPoint x="494" y="960" as="sourcePoint" />
            <mxPoint x="534" y="960" as="targetPoint" />
          </mxGeometry>
        </mxCell>
        <mxCell id="j-uOjzAiipVmSamTyCxf-64" value="" style="endArrow=classic;html=1;rounded=0;" parent="WIyWlLk6GJQsqaUBKTNV-1" edge="1">
          <mxGeometry width="50" height="50" relative="1" as="geometry">
            <mxPoint x="494" y="1040" as="sourcePoint" />
            <mxPoint x="534" y="1040" as="targetPoint" />
          </mxGeometry>
        </mxCell>
        <mxCell id="j-uOjzAiipVmSamTyCxf-65" value="" style="endArrow=classic;html=1;rounded=0;" parent="WIyWlLk6GJQsqaUBKTNV-1" edge="1">
          <mxGeometry width="50" height="50" relative="1" as="geometry">
            <mxPoint x="705" y="1240" as="sourcePoint" />
            <mxPoint x="775" y="1240" as="targetPoint" />
          </mxGeometry>
        </mxCell>
        <mxCell id="j-uOjzAiipVmSamTyCxf-66" value="" style="endArrow=classic;html=1;rounded=0;entryX=1;entryY=0.5;entryDx=0;entryDy=0;" parent="WIyWlLk6GJQsqaUBKTNV-1" target="j-uOjzAiipVmSamTyCxf-5" edge="1">
          <mxGeometry width="50" height="50" relative="1" as="geometry">
            <mxPoint x="710" y="1219.67" as="sourcePoint" />
            <mxPoint x="780" y="1219.67" as="targetPoint" />
            <Array as="points">
              <mxPoint x="810" y="1220" />
              <mxPoint x="810" y="340" />
            </Array>
          </mxGeometry>
        </mxCell>
        <mxCell id="j-uOjzAiipVmSamTyCxf-70" value="" style="edgeStyle=orthogonalEdgeStyle;rounded=0;orthogonalLoop=1;jettySize=auto;html=1;" parent="WIyWlLk6GJQsqaUBKTNV-1" source="j-uOjzAiipVmSamTyCxf-67" target="j-uOjzAiipVmSamTyCxf-69" edge="1">
          <mxGeometry relative="1" as="geometry" />
        </mxCell>
        <mxCell id="j-uOjzAiipVmSamTyCxf-72" value="" style="edgeStyle=orthogonalEdgeStyle;rounded=0;orthogonalLoop=1;jettySize=auto;html=1;" parent="WIyWlLk6GJQsqaUBKTNV-1" source="j-uOjzAiipVmSamTyCxf-67" target="j-uOjzAiipVmSamTyCxf-71" edge="1">
          <mxGeometry relative="1" as="geometry" />
        </mxCell>
        <mxCell id="j-uOjzAiipVmSamTyCxf-67" value="match_un in user_data and user_data[match_un][&#39;password&#39;] == match_pw" style="strokeWidth=2;html=1;shape=mxgraph.flowchart.decision;whiteSpace=wrap;" parent="WIyWlLk6GJQsqaUBKTNV-1" vertex="1">
          <mxGeometry x="10" y="1030" width="340" height="160" as="geometry" />
        </mxCell>
        <mxCell id="j-uOjzAiipVmSamTyCxf-287" style="edgeStyle=orthogonalEdgeStyle;rounded=0;orthogonalLoop=1;jettySize=auto;html=1;" parent="WIyWlLk6GJQsqaUBKTNV-1" source="j-uOjzAiipVmSamTyCxf-69" edge="1">
          <mxGeometry relative="1" as="geometry">
            <mxPoint x="-1360" y="940" as="targetPoint" />
          </mxGeometry>
        </mxCell>
        <mxCell id="j-uOjzAiipVmSamTyCxf-69" value="match_un == admin_login[&#39;username&#39;] and match_pw == admin_login[&#39;password&#39;]" style="strokeWidth=2;html=1;shape=mxgraph.flowchart.decision;whiteSpace=wrap;" parent="WIyWlLk6GJQsqaUBKTNV-1" vertex="1">
          <mxGeometry x="-1455" y="1030" width="190" height="160" as="geometry" />
        </mxCell>
        <mxCell id="j-uOjzAiipVmSamTyCxf-71" value="PUT &quot;Login Berhasil!&quot;" style="shape=parallelogram;perimeter=parallelogramPerimeter;whiteSpace=wrap;html=1;fixedSize=1;" parent="WIyWlLk6GJQsqaUBKTNV-1" vertex="1">
          <mxGeometry x="100" y="1220" width="160" height="40" as="geometry" />
        </mxCell>
        <mxCell id="j-uOjzAiipVmSamTyCxf-76" value="" style="edgeStyle=orthogonalEdgeStyle;rounded=0;orthogonalLoop=1;jettySize=auto;html=1;" parent="WIyWlLk6GJQsqaUBKTNV-1" target="j-uOjzAiipVmSamTyCxf-75" edge="1">
          <mxGeometry relative="1" as="geometry">
            <mxPoint x="180.02857142857147" y="1260" as="sourcePoint" />
          </mxGeometry>
        </mxCell>
        <mxCell id="j-uOjzAiipVmSamTyCxf-78" value="" style="edgeStyle=orthogonalEdgeStyle;rounded=0;orthogonalLoop=1;jettySize=auto;html=1;entryX=0.514;entryY=-0.016;entryDx=0;entryDy=0;entryPerimeter=0;" parent="WIyWlLk6GJQsqaUBKTNV-1" source="j-uOjzAiipVmSamTyCxf-75" target="j-uOjzAiipVmSamTyCxf-6" edge="1">
          <mxGeometry relative="1" as="geometry">
            <mxPoint x="210" y="1370" as="targetPoint" />
          </mxGeometry>
        </mxCell>
        <mxCell id="j-uOjzAiipVmSamTyCxf-75" value="Loop" style="ellipse;whiteSpace=wrap;html=1;" parent="WIyWlLk6GJQsqaUBKTNV-1" vertex="1">
          <mxGeometry x="135" y="1290" width="90" height="60" as="geometry" />
        </mxCell>
        <mxCell id="j-uOjzAiipVmSamTyCxf-79" value="" style="endArrow=classic;html=1;rounded=0;exitX=1;exitY=0.5;exitDx=0;exitDy=0;entryX=1;entryY=0.5;entryDx=0;entryDy=0;" parent="WIyWlLk6GJQsqaUBKTNV-1" source="j-uOjzAiipVmSamTyCxf-15" target="j-uOjzAiipVmSamTyCxf-5" edge="1">
          <mxGeometry width="50" height="50" relative="1" as="geometry">
            <mxPoint x="541" y="1570" as="sourcePoint" />
            <mxPoint x="480" y="340" as="targetPoint" />
            <Array as="points">
              <mxPoint x="820" y="1575" />
              <mxPoint x="820" y="340" />
            </Array>
          </mxGeometry>
        </mxCell>
        <mxCell id="j-uOjzAiipVmSamTyCxf-84" value="" style="edgeStyle=orthogonalEdgeStyle;rounded=0;orthogonalLoop=1;jettySize=auto;html=1;" parent="WIyWlLk6GJQsqaUBKTNV-1" source="j-uOjzAiipVmSamTyCxf-80" target="j-uOjzAiipVmSamTyCxf-83" edge="1">
          <mxGeometry relative="1" as="geometry" />
        </mxCell>
        <mxCell id="j-uOjzAiipVmSamTyCxf-80" value="nama = input(&quot;Masukkan nama kontak : &quot;)" style="shape=parallelogram;perimeter=parallelogramPerimeter;whiteSpace=wrap;html=1;fixedSize=1;" parent="WIyWlLk6GJQsqaUBKTNV-1" vertex="1">
          <mxGeometry x="-324.5" y="1640" width="205" height="40" as="geometry" />
        </mxCell>
        <mxCell id="j-uOjzAiipVmSamTyCxf-86" value="" style="edgeStyle=orthogonalEdgeStyle;rounded=0;orthogonalLoop=1;jettySize=auto;html=1;" parent="WIyWlLk6GJQsqaUBKTNV-1" source="j-uOjzAiipVmSamTyCxf-83" target="j-uOjzAiipVmSamTyCxf-85" edge="1">
          <mxGeometry relative="1" as="geometry" />
        </mxCell>
        <mxCell id="j-uOjzAiipVmSamTyCxf-83" value="nomor = input(&quot;Masukkan nomor kontak : &quot;)" style="shape=parallelogram;perimeter=parallelogramPerimeter;whiteSpace=wrap;html=1;fixedSize=1;" parent="WIyWlLk6GJQsqaUBKTNV-1" vertex="1">
          <mxGeometry x="-324.5" y="1710" width="205" height="40" as="geometry" />
        </mxCell>
        <mxCell id="j-uOjzAiipVmSamTyCxf-89" value="" style="edgeStyle=orthogonalEdgeStyle;rounded=0;orthogonalLoop=1;jettySize=auto;html=1;" parent="WIyWlLk6GJQsqaUBKTNV-1" source="j-uOjzAiipVmSamTyCxf-85" edge="1">
          <mxGeometry relative="1" as="geometry">
            <mxPoint x="-221.97142857142853" y="1850" as="targetPoint" />
          </mxGeometry>
        </mxCell>
        <mxCell id="j-uOjzAiipVmSamTyCxf-85" value="Loop" style="ellipse;whiteSpace=wrap;html=1;" parent="WIyWlLk6GJQsqaUBKTNV-1" vertex="1">
          <mxGeometry x="-267" y="1770" width="90" height="60" as="geometry" />
        </mxCell>
        <mxCell id="j-uOjzAiipVmSamTyCxf-92" value="" style="edgeStyle=orthogonalEdgeStyle;rounded=0;orthogonalLoop=1;jettySize=auto;html=1;" parent="WIyWlLk6GJQsqaUBKTNV-1" source="j-uOjzAiipVmSamTyCxf-90" target="j-uOjzAiipVmSamTyCxf-91" edge="1">
          <mxGeometry relative="1" as="geometry" />
        </mxCell>
        <mxCell id="j-uOjzAiipVmSamTyCxf-95" value="" style="edgeStyle=orthogonalEdgeStyle;rounded=0;orthogonalLoop=1;jettySize=auto;html=1;" parent="WIyWlLk6GJQsqaUBKTNV-1" source="j-uOjzAiipVmSamTyCxf-90" target="j-uOjzAiipVmSamTyCxf-94" edge="1">
          <mxGeometry relative="1" as="geometry" />
        </mxCell>
        <mxCell id="j-uOjzAiipVmSamTyCxf-97" value="" style="edgeStyle=orthogonalEdgeStyle;rounded=0;orthogonalLoop=1;jettySize=auto;html=1;" parent="WIyWlLk6GJQsqaUBKTNV-1" source="j-uOjzAiipVmSamTyCxf-90" target="j-uOjzAiipVmSamTyCxf-96" edge="1">
          <mxGeometry relative="1" as="geometry" />
        </mxCell>
        <mxCell id="j-uOjzAiipVmSamTyCxf-90" value="&quot;Tambahkan E-mail? [Y/N] &quot;" style="rhombus;whiteSpace=wrap;html=1;" parent="WIyWlLk6GJQsqaUBKTNV-1" vertex="1">
          <mxGeometry x="-272" y="1850" width="100" height="80" as="geometry" />
        </mxCell>
        <mxCell id="j-uOjzAiipVmSamTyCxf-103" value="" style="edgeStyle=orthogonalEdgeStyle;rounded=0;orthogonalLoop=1;jettySize=auto;html=1;" parent="WIyWlLk6GJQsqaUBKTNV-1" source="j-uOjzAiipVmSamTyCxf-91" target="j-uOjzAiipVmSamTyCxf-102" edge="1">
          <mxGeometry relative="1" as="geometry" />
        </mxCell>
        <mxCell id="j-uOjzAiipVmSamTyCxf-91" value="e_mail = input(&quot;Masukkan e-mail kontak : &quot;)" style="shape=parallelogram;perimeter=parallelogramPerimeter;whiteSpace=wrap;html=1;fixedSize=1;" parent="WIyWlLk6GJQsqaUBKTNV-1" vertex="1">
          <mxGeometry x="-452" y="1860" width="150" height="60" as="geometry" />
        </mxCell>
        <mxCell id="j-uOjzAiipVmSamTyCxf-100" style="edgeStyle=orthogonalEdgeStyle;rounded=0;orthogonalLoop=1;jettySize=auto;html=1;entryX=1;entryY=0.5;entryDx=0;entryDy=0;" parent="WIyWlLk6GJQsqaUBKTNV-1" source="j-uOjzAiipVmSamTyCxf-94" target="j-uOjzAiipVmSamTyCxf-85" edge="1">
          <mxGeometry relative="1" as="geometry">
            <Array as="points">
              <mxPoint x="-92" y="1800" />
            </Array>
          </mxGeometry>
        </mxCell>
        <mxCell id="j-uOjzAiipVmSamTyCxf-94" value="PUT &quot;Perintah tidak diketahui (hanya Y/N)&quot;" style="shape=parallelogram;perimeter=parallelogramPerimeter;whiteSpace=wrap;html=1;fixedSize=1;" parent="WIyWlLk6GJQsqaUBKTNV-1" vertex="1">
          <mxGeometry x="-152" y="1865" width="120" height="50" as="geometry" />
        </mxCell>
        <mxCell id="j-uOjzAiipVmSamTyCxf-104" value="" style="edgeStyle=orthogonalEdgeStyle;rounded=0;orthogonalLoop=1;jettySize=auto;html=1;" parent="WIyWlLk6GJQsqaUBKTNV-1" source="j-uOjzAiipVmSamTyCxf-96" target="j-uOjzAiipVmSamTyCxf-102" edge="1">
          <mxGeometry relative="1" as="geometry" />
        </mxCell>
        <mxCell id="j-uOjzAiipVmSamTyCxf-96" value="e_mail = &quot;N/A&quot;" style="rounded=0;whiteSpace=wrap;html=1;" parent="WIyWlLk6GJQsqaUBKTNV-1" vertex="1">
          <mxGeometry x="-272" y="1970" width="100" height="40" as="geometry" />
        </mxCell>
        <mxCell id="j-uOjzAiipVmSamTyCxf-106" value="" style="edgeStyle=orthogonalEdgeStyle;rounded=0;orthogonalLoop=1;jettySize=auto;html=1;" parent="WIyWlLk6GJQsqaUBKTNV-1" source="j-uOjzAiipVmSamTyCxf-102" target="j-uOjzAiipVmSamTyCxf-105" edge="1">
          <mxGeometry relative="1" as="geometry" />
        </mxCell>
        <mxCell id="j-uOjzAiipVmSamTyCxf-102" value="Loop" style="ellipse;whiteSpace=wrap;html=1;" parent="WIyWlLk6GJQsqaUBKTNV-1" vertex="1">
          <mxGeometry x="-422" y="1960" width="90" height="60" as="geometry" />
        </mxCell>
        <mxCell id="j-uOjzAiipVmSamTyCxf-108" value="" style="edgeStyle=orthogonalEdgeStyle;rounded=0;orthogonalLoop=1;jettySize=auto;html=1;" parent="WIyWlLk6GJQsqaUBKTNV-1" source="j-uOjzAiipVmSamTyCxf-105" target="j-uOjzAiipVmSamTyCxf-107" edge="1">
          <mxGeometry relative="1" as="geometry" />
        </mxCell>
        <mxCell id="j-uOjzAiipVmSamTyCxf-113" value="" style="edgeStyle=orthogonalEdgeStyle;rounded=0;orthogonalLoop=1;jettySize=auto;html=1;" parent="WIyWlLk6GJQsqaUBKTNV-1" source="j-uOjzAiipVmSamTyCxf-105" target="j-uOjzAiipVmSamTyCxf-111" edge="1">
          <mxGeometry relative="1" as="geometry" />
        </mxCell>
        <mxCell id="j-uOjzAiipVmSamTyCxf-115" value="" style="edgeStyle=orthogonalEdgeStyle;rounded=0;orthogonalLoop=1;jettySize=auto;html=1;" parent="WIyWlLk6GJQsqaUBKTNV-1" source="j-uOjzAiipVmSamTyCxf-105" target="j-uOjzAiipVmSamTyCxf-114" edge="1">
          <mxGeometry relative="1" as="geometry" />
        </mxCell>
        <mxCell id="j-uOjzAiipVmSamTyCxf-105" value="&quot;Tambahkan akun sosial? [Y/N] &quot;" style="rhombus;whiteSpace=wrap;html=1;" parent="WIyWlLk6GJQsqaUBKTNV-1" vertex="1">
          <mxGeometry x="-442" y="2050" width="130" height="100" as="geometry" />
        </mxCell>
        <mxCell id="j-uOjzAiipVmSamTyCxf-109" style="edgeStyle=orthogonalEdgeStyle;rounded=0;orthogonalLoop=1;jettySize=auto;html=1;entryX=0;entryY=0.5;entryDx=0;entryDy=0;" parent="WIyWlLk6GJQsqaUBKTNV-1" source="j-uOjzAiipVmSamTyCxf-107" target="j-uOjzAiipVmSamTyCxf-102" edge="1">
          <mxGeometry relative="1" as="geometry">
            <Array as="points">
              <mxPoint x="-530" y="1990" />
            </Array>
          </mxGeometry>
        </mxCell>
        <mxCell id="j-uOjzAiipVmSamTyCxf-107" value="PUT &quot;Perintah tidak diketahui (hanya Y/N)&quot;" style="shape=parallelogram;perimeter=parallelogramPerimeter;whiteSpace=wrap;html=1;fixedSize=1;" parent="WIyWlLk6GJQsqaUBKTNV-1" vertex="1">
          <mxGeometry x="-590" y="2070" width="120" height="60" as="geometry" />
        </mxCell>
        <mxCell id="Pe8v_tdV25wXCAUM1Yoh-22" value="" style="edgeStyle=orthogonalEdgeStyle;rounded=0;orthogonalLoop=1;jettySize=auto;html=1;" parent="WIyWlLk6GJQsqaUBKTNV-1" source="j-uOjzAiipVmSamTyCxf-111" target="j-uOjzAiipVmSamTyCxf-118" edge="1">
          <mxGeometry relative="1" as="geometry" />
        </mxCell>
        <mxCell id="j-uOjzAiipVmSamTyCxf-111" value="social1 = input(&quot;Masukkan akun sosial (contoh : @JohnDoe (Instagram)) : &quot;)" style="shape=parallelogram;perimeter=parallelogramPerimeter;whiteSpace=wrap;html=1;fixedSize=1;" parent="WIyWlLk6GJQsqaUBKTNV-1" vertex="1">
          <mxGeometry x="-262" y="2068.09" width="155" height="63.82" as="geometry" />
        </mxCell>
        <mxCell id="j-uOjzAiipVmSamTyCxf-119" value="" style="edgeStyle=orthogonalEdgeStyle;rounded=0;orthogonalLoop=1;jettySize=auto;html=1;" parent="WIyWlLk6GJQsqaUBKTNV-1" source="j-uOjzAiipVmSamTyCxf-114" target="j-uOjzAiipVmSamTyCxf-118" edge="1">
          <mxGeometry relative="1" as="geometry" />
        </mxCell>
        <mxCell id="j-uOjzAiipVmSamTyCxf-114" value="social1 = &quot;N/A&quot;" style="rounded=0;whiteSpace=wrap;html=1;" parent="WIyWlLk6GJQsqaUBKTNV-1" vertex="1">
          <mxGeometry x="-427" y="2187.5" width="100" height="40" as="geometry" />
        </mxCell>
        <mxCell id="j-uOjzAiipVmSamTyCxf-116" value="PUT &quot;Kontak berhasil ditambahkan&quot;" style="shape=parallelogram;perimeter=parallelogramPerimeter;whiteSpace=wrap;html=1;fixedSize=1;" parent="WIyWlLk6GJQsqaUBKTNV-1" vertex="1">
          <mxGeometry x="-252" y="2260" width="142.5" height="48.09" as="geometry" />
        </mxCell>
        <mxCell id="j-uOjzAiipVmSamTyCxf-120" value="" style="edgeStyle=orthogonalEdgeStyle;rounded=0;orthogonalLoop=1;jettySize=auto;html=1;" parent="WIyWlLk6GJQsqaUBKTNV-1" edge="1">
          <mxGeometry relative="1" as="geometry">
            <mxPoint x="-182" y="2235" as="sourcePoint" />
            <mxPoint x="-179.24000000000024" y="2260" as="targetPoint" />
          </mxGeometry>
        </mxCell>
        <mxCell id="j-uOjzAiipVmSamTyCxf-118" value="user_data[match_un][&quot;contacts&quot;].append({&quot;name&quot;: nama, &quot;number&quot;: nomor, &quot;email&quot;: e_mail, &quot;social&quot;: social1})" style="rounded=0;whiteSpace=wrap;html=1;" parent="WIyWlLk6GJQsqaUBKTNV-1" vertex="1">
          <mxGeometry x="-300" y="2180" width="233" height="55" as="geometry" />
        </mxCell>
        <mxCell id="j-uOjzAiipVmSamTyCxf-121" value="" style="endArrow=classic;html=1;rounded=0;exitX=0;exitY=0.5;exitDx=0;exitDy=0;entryX=0;entryY=0.5;entryDx=0;entryDy=0;" parent="WIyWlLk6GJQsqaUBKTNV-1" source="j-uOjzAiipVmSamTyCxf-116" target="j-uOjzAiipVmSamTyCxf-75" edge="1">
          <mxGeometry width="50" height="50" relative="1" as="geometry">
            <mxPoint x="-200" y="2080" as="sourcePoint" />
            <mxPoint x="130" y="1320" as="targetPoint" />
            <Array as="points">
              <mxPoint x="-610" y="2284" />
              <mxPoint x="-610" y="1320" />
            </Array>
          </mxGeometry>
        </mxCell>
        <mxCell id="j-uOjzAiipVmSamTyCxf-125" value="" style="edgeStyle=orthogonalEdgeStyle;rounded=0;orthogonalLoop=1;jettySize=auto;html=1;" parent="WIyWlLk6GJQsqaUBKTNV-1" source="j-uOjzAiipVmSamTyCxf-122" target="j-uOjzAiipVmSamTyCxf-124" edge="1">
          <mxGeometry relative="1" as="geometry" />
        </mxCell>
        <mxCell id="j-uOjzAiipVmSamTyCxf-122" value="for contact in user_data[match_un][&quot;contacts&quot;]:" style="rounded=0;whiteSpace=wrap;html=1;" parent="WIyWlLk6GJQsqaUBKTNV-1" vertex="1">
          <mxGeometry x="-36.33" y="1760" width="120" height="60" as="geometry" />
        </mxCell>
        <mxCell id="j-uOjzAiipVmSamTyCxf-127" value="" style="edgeStyle=orthogonalEdgeStyle;rounded=0;orthogonalLoop=1;jettySize=auto;html=1;" parent="WIyWlLk6GJQsqaUBKTNV-1" source="j-uOjzAiipVmSamTyCxf-124" target="j-uOjzAiipVmSamTyCxf-126" edge="1">
          <mxGeometry relative="1" as="geometry" />
        </mxCell>
        <mxCell id="j-uOjzAiipVmSamTyCxf-124" value="print(f&quot;Kontak ke-{user_data[match_un][&#39;contacts&#39;].index(contact)+1}\nNama : {contact[&#39;name&#39;]}\nNomor : {contact[&#39;number&#39;]}\nE-mail : {contact[&#39;email&#39;]}\nSocial : {contact[&#39;social&#39;]}\n&quot;)" style="shape=parallelogram;perimeter=parallelogramPerimeter;whiteSpace=wrap;html=1;fixedSize=1;" parent="WIyWlLk6GJQsqaUBKTNV-1" vertex="1">
          <mxGeometry x="-78.57" y="1930" width="204.49" height="100" as="geometry" />
        </mxCell>
        <mxCell id="j-uOjzAiipVmSamTyCxf-129" value="" style="edgeStyle=orthogonalEdgeStyle;rounded=0;orthogonalLoop=1;jettySize=auto;html=1;" parent="WIyWlLk6GJQsqaUBKTNV-1" source="j-uOjzAiipVmSamTyCxf-126" target="j-uOjzAiipVmSamTyCxf-128" edge="1">
          <mxGeometry relative="1" as="geometry" />
        </mxCell>
        <mxCell id="j-uOjzAiipVmSamTyCxf-126" value="print(&quot;Kontak lainnya:&quot;)" style="shape=parallelogram;perimeter=parallelogramPerimeter;whiteSpace=wrap;html=1;fixedSize=1;" parent="WIyWlLk6GJQsqaUBKTNV-1" vertex="1">
          <mxGeometry x="-50.60999999999999" y="2070" width="148.57" height="41.91" as="geometry" />
        </mxCell>
        <mxCell id="j-uOjzAiipVmSamTyCxf-131" value="" style="edgeStyle=orthogonalEdgeStyle;rounded=0;orthogonalLoop=1;jettySize=auto;html=1;" parent="WIyWlLk6GJQsqaUBKTNV-1" source="j-uOjzAiipVmSamTyCxf-128" target="j-uOjzAiipVmSamTyCxf-130" edge="1">
          <mxGeometry relative="1" as="geometry" />
        </mxCell>
        <mxCell id="j-uOjzAiipVmSamTyCxf-128" value="for contact in default_contacts:" style="rounded=0;whiteSpace=wrap;html=1;" parent="WIyWlLk6GJQsqaUBKTNV-1" vertex="1">
          <mxGeometry x="-54.5" y="2140" width="156.33" height="60" as="geometry" />
        </mxCell>
        <mxCell id="j-uOjzAiipVmSamTyCxf-132" style="edgeStyle=orthogonalEdgeStyle;rounded=0;orthogonalLoop=1;jettySize=auto;html=1;entryX=0;entryY=0.5;entryDx=0;entryDy=0;" parent="WIyWlLk6GJQsqaUBKTNV-1" source="j-uOjzAiipVmSamTyCxf-130" target="j-uOjzAiipVmSamTyCxf-75" edge="1">
          <mxGeometry relative="1" as="geometry">
            <mxPoint x="130" y="1320" as="targetPoint" />
            <Array as="points">
              <mxPoint x="-650" y="2345" />
              <mxPoint x="-650" y="1320" />
            </Array>
          </mxGeometry>
        </mxCell>
        <mxCell id="j-uOjzAiipVmSamTyCxf-130" value="print(f&quot;Nama : {contact[&#39;name&#39;]}\nNomor : {contact[&#39;number&#39;]}\n&quot;)" style="shape=parallelogram;perimeter=parallelogramPerimeter;whiteSpace=wrap;html=1;fixedSize=1;" parent="WIyWlLk6GJQsqaUBKTNV-1" vertex="1">
          <mxGeometry x="-49.50000000000001" y="2310" width="146.33" height="70" as="geometry" />
        </mxCell>
        <mxCell id="j-uOjzAiipVmSamTyCxf-136" value="" style="edgeStyle=orthogonalEdgeStyle;rounded=0;orthogonalLoop=1;jettySize=auto;html=1;" parent="WIyWlLk6GJQsqaUBKTNV-1" source="j-uOjzAiipVmSamTyCxf-133" target="j-uOjzAiipVmSamTyCxf-135" edge="1">
          <mxGeometry relative="1" as="geometry" />
        </mxCell>
        <mxCell id="j-uOjzAiipVmSamTyCxf-133" value="for i, contact in enumerate(user_data[match_un][&quot;contacts&quot;]):" style="rounded=0;whiteSpace=wrap;html=1;" parent="WIyWlLk6GJQsqaUBKTNV-1" vertex="1">
          <mxGeometry x="135" y="1763" width="190" height="60" as="geometry" />
        </mxCell>
        <mxCell id="j-uOjzAiipVmSamTyCxf-138" value="" style="edgeStyle=orthogonalEdgeStyle;rounded=0;orthogonalLoop=1;jettySize=auto;html=1;" parent="WIyWlLk6GJQsqaUBKTNV-1" source="j-uOjzAiipVmSamTyCxf-135" target="j-uOjzAiipVmSamTyCxf-137" edge="1">
          <mxGeometry relative="1" as="geometry" />
        </mxCell>
        <mxCell id="j-uOjzAiipVmSamTyCxf-135" value="print(f&quot;Kontak ke-{i+1}\nNama : {contact[&#39;name&#39;]}, Nomor : {contact[&#39;number&#39;]}\n&quot;)" style="shape=parallelogram;perimeter=parallelogramPerimeter;whiteSpace=wrap;html=1;fixedSize=1;" parent="WIyWlLk6GJQsqaUBKTNV-1" vertex="1">
          <mxGeometry x="145" y="1855" width="170" height="60" as="geometry" />
        </mxCell>
        <mxCell id="Pe8v_tdV25wXCAUM1Yoh-30" value="" style="edgeStyle=orthogonalEdgeStyle;rounded=0;orthogonalLoop=1;jettySize=auto;html=1;" parent="WIyWlLk6GJQsqaUBKTNV-1" source="j-uOjzAiipVmSamTyCxf-137" target="j-uOjzAiipVmSamTyCxf-141" edge="1">
          <mxGeometry relative="1" as="geometry" />
        </mxCell>
        <mxCell id="j-uOjzAiipVmSamTyCxf-137" value="match_ch = int(input(&quot;Pilih kontak yang ingin diubah (hanya angka) : &quot;)) - 1" style="shape=parallelogram;perimeter=parallelogramPerimeter;whiteSpace=wrap;html=1;fixedSize=1;" parent="WIyWlLk6GJQsqaUBKTNV-1" vertex="1">
          <mxGeometry x="147.5" y="1970" width="165" height="70" as="geometry" />
        </mxCell>
        <mxCell id="j-uOjzAiipVmSamTyCxf-144" value="" style="edgeStyle=orthogonalEdgeStyle;rounded=0;orthogonalLoop=1;jettySize=auto;html=1;" parent="WIyWlLk6GJQsqaUBKTNV-1" source="j-uOjzAiipVmSamTyCxf-141" target="j-uOjzAiipVmSamTyCxf-143" edge="1">
          <mxGeometry relative="1" as="geometry" />
        </mxCell>
        <mxCell id="j-uOjzAiipVmSamTyCxf-168" value="" style="edgeStyle=orthogonalEdgeStyle;rounded=0;orthogonalLoop=1;jettySize=auto;html=1;" parent="WIyWlLk6GJQsqaUBKTNV-1" source="j-uOjzAiipVmSamTyCxf-141" target="j-uOjzAiipVmSamTyCxf-167" edge="1">
          <mxGeometry relative="1" as="geometry" />
        </mxCell>
        <mxCell id="j-uOjzAiipVmSamTyCxf-141" value="match_ch &gt;= 0 and match_ch &lt;= len(user_data[match_un][&quot;contacts&quot;]):" style="rhombus;whiteSpace=wrap;html=1;" parent="WIyWlLk6GJQsqaUBKTNV-1" vertex="1">
          <mxGeometry x="175" y="2125" width="110" height="80" as="geometry" />
        </mxCell>
        <mxCell id="j-uOjzAiipVmSamTyCxf-147" value="" style="edgeStyle=orthogonalEdgeStyle;rounded=0;orthogonalLoop=1;jettySize=auto;html=1;" parent="WIyWlLk6GJQsqaUBKTNV-1" source="j-uOjzAiipVmSamTyCxf-143" target="j-uOjzAiipVmSamTyCxf-146" edge="1">
          <mxGeometry relative="1" as="geometry" />
        </mxCell>
        <mxCell id="j-uOjzAiipVmSamTyCxf-143" value="new_name = input(&quot;Nama : &quot;)" style="shape=parallelogram;perimeter=parallelogramPerimeter;whiteSpace=wrap;html=1;fixedSize=1;" parent="WIyWlLk6GJQsqaUBKTNV-1" vertex="1">
          <mxGeometry x="130" y="2230" width="200" height="30" as="geometry" />
        </mxCell>
        <mxCell id="j-uOjzAiipVmSamTyCxf-149" value="" style="edgeStyle=orthogonalEdgeStyle;rounded=0;orthogonalLoop=1;jettySize=auto;html=1;" parent="WIyWlLk6GJQsqaUBKTNV-1" source="j-uOjzAiipVmSamTyCxf-146" target="j-uOjzAiipVmSamTyCxf-148" edge="1">
          <mxGeometry relative="1" as="geometry" />
        </mxCell>
        <mxCell id="j-uOjzAiipVmSamTyCxf-146" value="new_num = input(&quot;Nomor : &quot;)" style="shape=parallelogram;perimeter=parallelogramPerimeter;whiteSpace=wrap;html=1;fixedSize=1;" parent="WIyWlLk6GJQsqaUBKTNV-1" vertex="1">
          <mxGeometry x="130" y="2290" width="200" height="30" as="geometry" />
        </mxCell>
        <mxCell id="j-uOjzAiipVmSamTyCxf-151" value="" style="edgeStyle=orthogonalEdgeStyle;rounded=0;orthogonalLoop=1;jettySize=auto;html=1;" parent="WIyWlLk6GJQsqaUBKTNV-1" source="j-uOjzAiipVmSamTyCxf-148" target="j-uOjzAiipVmSamTyCxf-150" edge="1">
          <mxGeometry relative="1" as="geometry" />
        </mxCell>
        <mxCell id="j-uOjzAiipVmSamTyCxf-148" value="new_email = input(&quot;E-mail : &quot;)" style="shape=parallelogram;perimeter=parallelogramPerimeter;whiteSpace=wrap;html=1;fixedSize=1;" parent="WIyWlLk6GJQsqaUBKTNV-1" vertex="1">
          <mxGeometry x="130" y="2340" width="200" height="30" as="geometry" />
        </mxCell>
        <mxCell id="j-uOjzAiipVmSamTyCxf-153" value="" style="edgeStyle=orthogonalEdgeStyle;rounded=0;orthogonalLoop=1;jettySize=auto;html=1;" parent="WIyWlLk6GJQsqaUBKTNV-1" source="j-uOjzAiipVmSamTyCxf-150" target="j-uOjzAiipVmSamTyCxf-152" edge="1">
          <mxGeometry relative="1" as="geometry" />
        </mxCell>
        <mxCell id="j-uOjzAiipVmSamTyCxf-150" value="new_social = input(&quot;Social : &quot;)" style="shape=parallelogram;perimeter=parallelogramPerimeter;whiteSpace=wrap;html=1;fixedSize=1;" parent="WIyWlLk6GJQsqaUBKTNV-1" vertex="1">
          <mxGeometry x="130" y="2390" width="200" height="30" as="geometry" />
        </mxCell>
        <mxCell id="j-uOjzAiipVmSamTyCxf-155" value="" style="edgeStyle=orthogonalEdgeStyle;rounded=0;orthogonalLoop=1;jettySize=auto;html=1;" parent="WIyWlLk6GJQsqaUBKTNV-1" source="j-uOjzAiipVmSamTyCxf-152" target="j-uOjzAiipVmSamTyCxf-154" edge="1">
          <mxGeometry relative="1" as="geometry" />
        </mxCell>
        <mxCell id="j-uOjzAiipVmSamTyCxf-152" value="user_data[match_un][&quot;contacts&quot;][match_ch][&quot;name&quot;] = new_name&#xa;user_data[match_un][&quot;contacts&quot;][match_ch][&quot;number&quot;] = new_num&#xa;user_data[match_un][&quot;contacts&quot;][match_ch][&quot;email&quot;] = new_email&#xa;user_data[match_un][&quot;contacts&quot;][match_ch][&quot;social&quot;] = new_social" style="whiteSpace=wrap;html=1;" parent="WIyWlLk6GJQsqaUBKTNV-1" vertex="1">
          <mxGeometry x="47.5" y="2450" width="365" height="70" as="geometry" />
        </mxCell>
        <mxCell id="j-uOjzAiipVmSamTyCxf-156" style="edgeStyle=orthogonalEdgeStyle;rounded=0;orthogonalLoop=1;jettySize=auto;html=1;entryX=0;entryY=0.5;entryDx=0;entryDy=0;" parent="WIyWlLk6GJQsqaUBKTNV-1" source="j-uOjzAiipVmSamTyCxf-154" target="j-uOjzAiipVmSamTyCxf-75" edge="1">
          <mxGeometry relative="1" as="geometry">
            <mxPoint x="-680" y="1320" as="targetPoint" />
            <Array as="points">
              <mxPoint x="-680" y="2560" />
              <mxPoint x="-680" y="1320" />
            </Array>
          </mxGeometry>
        </mxCell>
        <mxCell id="j-uOjzAiipVmSamTyCxf-154" value="print(&quot;Kontak telah diubah&quot;)" style="shape=parallelogram;perimeter=parallelogramPerimeter;whiteSpace=wrap;html=1;fixedSize=1;" parent="WIyWlLk6GJQsqaUBKTNV-1" vertex="1">
          <mxGeometry x="135" y="2540" width="190" height="40" as="geometry" />
        </mxCell>
        <mxCell id="j-uOjzAiipVmSamTyCxf-158" value="" style="edgeStyle=orthogonalEdgeStyle;rounded=0;orthogonalLoop=1;jettySize=auto;html=1;" parent="WIyWlLk6GJQsqaUBKTNV-1" source="j-uOjzAiipVmSamTyCxf-159" target="j-uOjzAiipVmSamTyCxf-161" edge="1">
          <mxGeometry relative="1" as="geometry" />
        </mxCell>
        <mxCell id="j-uOjzAiipVmSamTyCxf-159" value="for i, contact in enumerate(user_data[match_un][&quot;contacts&quot;]):" style="rounded=0;whiteSpace=wrap;html=1;" parent="WIyWlLk6GJQsqaUBKTNV-1" vertex="1">
          <mxGeometry x="447.5" y="1763" width="195" height="60" as="geometry" />
        </mxCell>
        <mxCell id="j-uOjzAiipVmSamTyCxf-160" value="" style="edgeStyle=orthogonalEdgeStyle;rounded=0;orthogonalLoop=1;jettySize=auto;html=1;" parent="WIyWlLk6GJQsqaUBKTNV-1" source="j-uOjzAiipVmSamTyCxf-161" target="j-uOjzAiipVmSamTyCxf-163" edge="1">
          <mxGeometry relative="1" as="geometry" />
        </mxCell>
        <mxCell id="j-uOjzAiipVmSamTyCxf-161" value="print(f&quot;Kontak ke-{i+1}\nNama : {contact[&#39;name&#39;]}, Nomor : {contact[&#39;number&#39;]}\n&quot;)" style="shape=parallelogram;perimeter=parallelogramPerimeter;whiteSpace=wrap;html=1;fixedSize=1;" parent="WIyWlLk6GJQsqaUBKTNV-1" vertex="1">
          <mxGeometry x="460" y="1855" width="170" height="60" as="geometry" />
        </mxCell>
        <mxCell id="Pe8v_tdV25wXCAUM1Yoh-21" style="edgeStyle=orthogonalEdgeStyle;rounded=0;orthogonalLoop=1;jettySize=auto;html=1;exitX=0;exitY=0.25;exitDx=0;exitDy=0;" parent="WIyWlLk6GJQsqaUBKTNV-1" source="j-uOjzAiipVmSamTyCxf-163" edge="1">
          <mxGeometry relative="1" as="geometry">
            <mxPoint x="476.5" y="1990" as="targetPoint" />
          </mxGeometry>
        </mxCell>
        <mxCell id="Pe8v_tdV25wXCAUM1Yoh-35" value="" style="edgeStyle=orthogonalEdgeStyle;rounded=0;orthogonalLoop=1;jettySize=auto;html=1;" parent="WIyWlLk6GJQsqaUBKTNV-1" source="j-uOjzAiipVmSamTyCxf-163" target="j-uOjzAiipVmSamTyCxf-166" edge="1">
          <mxGeometry relative="1" as="geometry" />
        </mxCell>
        <mxCell id="j-uOjzAiipVmSamTyCxf-163" value="match_cdel = int(input(&quot;Pilih kontak yang ingin dihapus (hanya angka) : &quot;)) - 1" style="shape=parallelogram;perimeter=parallelogramPerimeter;whiteSpace=wrap;html=1;fixedSize=1;" parent="WIyWlLk6GJQsqaUBKTNV-1" vertex="1">
          <mxGeometry x="462.5" y="1970" width="165" height="70" as="geometry" />
        </mxCell>
        <mxCell id="j-uOjzAiipVmSamTyCxf-171" value="" style="edgeStyle=orthogonalEdgeStyle;rounded=0;orthogonalLoop=1;jettySize=auto;html=1;" parent="WIyWlLk6GJQsqaUBKTNV-1" source="j-uOjzAiipVmSamTyCxf-166" target="j-uOjzAiipVmSamTyCxf-170" edge="1">
          <mxGeometry relative="1" as="geometry" />
        </mxCell>
        <mxCell id="Pe8v_tdV25wXCAUM1Yoh-36" value="" style="edgeStyle=orthogonalEdgeStyle;rounded=0;orthogonalLoop=1;jettySize=auto;html=1;" parent="WIyWlLk6GJQsqaUBKTNV-1" source="j-uOjzAiipVmSamTyCxf-166" target="j-uOjzAiipVmSamTyCxf-174" edge="1">
          <mxGeometry relative="1" as="geometry" />
        </mxCell>
        <mxCell id="j-uOjzAiipVmSamTyCxf-166" value="atch_cdel &gt;= 0 and match_cdel &lt;= len(user_data [match_un][&quot;contacts&quot;]):" style="rhombus;whiteSpace=wrap;html=1;" parent="WIyWlLk6GJQsqaUBKTNV-1" vertex="1">
          <mxGeometry x="475.33" y="2131.91" width="139.34" height="80" as="geometry" />
        </mxCell>
        <mxCell id="j-uOjzAiipVmSamTyCxf-167" value="print(&quot;Kontak tidak ditemukan&quot;)" style="shape=parallelogram;perimeter=parallelogramPerimeter;whiteSpace=wrap;html=1;fixedSize=1;" parent="WIyWlLk6GJQsqaUBKTNV-1" vertex="1">
          <mxGeometry x="324.34000000000003" y="2135" width="120" height="60" as="geometry" />
        </mxCell>
        <mxCell id="j-uOjzAiipVmSamTyCxf-169" value="print(&quot;Kontak berhasil dihapus&quot;)" style="shape=parallelogram;perimeter=parallelogramPerimeter;whiteSpace=wrap;html=1;fixedSize=1;" parent="WIyWlLk6GJQsqaUBKTNV-1" vertex="1">
          <mxGeometry x="484.34000000000003" y="2320" width="120" height="60" as="geometry" />
        </mxCell>
        <mxCell id="j-uOjzAiipVmSamTyCxf-172" value="" style="edgeStyle=orthogonalEdgeStyle;rounded=0;orthogonalLoop=1;jettySize=auto;html=1;" parent="WIyWlLk6GJQsqaUBKTNV-1" source="j-uOjzAiipVmSamTyCxf-170" target="j-uOjzAiipVmSamTyCxf-169" edge="1">
          <mxGeometry relative="1" as="geometry" />
        </mxCell>
        <mxCell id="j-uOjzAiipVmSamTyCxf-170" value="del user_data[match_un][&quot;contacts&quot;][match_cdel]" style="rounded=0;whiteSpace=wrap;html=1;" parent="WIyWlLk6GJQsqaUBKTNV-1" vertex="1">
          <mxGeometry x="474" y="2235" width="144.67" height="60" as="geometry" />
        </mxCell>
        <mxCell id="j-uOjzAiipVmSamTyCxf-174" value="print(&quot;Kontak tidak ditemukan&quot;)" style="shape=parallelogram;perimeter=parallelogramPerimeter;whiteSpace=wrap;html=1;fixedSize=1;" parent="WIyWlLk6GJQsqaUBKTNV-1" vertex="1">
          <mxGeometry x="638.6800000000001" y="2141.91" width="120" height="60" as="geometry" />
        </mxCell>
        <mxCell id="j-uOjzAiipVmSamTyCxf-175" value="" style="endArrow=classic;html=1;rounded=0;exitX=0.561;exitY=0.998;exitDx=0;exitDy=0;exitPerimeter=0;entryX=0;entryY=0.5;entryDx=0;entryDy=0;" parent="WIyWlLk6GJQsqaUBKTNV-1" source="j-uOjzAiipVmSamTyCxf-167" target="j-uOjzAiipVmSamTyCxf-75" edge="1">
          <mxGeometry width="50" height="50" relative="1" as="geometry">
            <mxPoint x="420" y="2370" as="sourcePoint" />
            <mxPoint x="130" y="1320" as="targetPoint" />
            <Array as="points">
              <mxPoint x="400" y="2380" />
              <mxPoint x="450" y="2380" />
              <mxPoint x="450" y="2620" />
              <mxPoint x="90" y="2620" />
              <mxPoint x="90" y="2560" />
              <mxPoint x="-680" y="2560" />
              <mxPoint x="-680" y="1320" />
            </Array>
          </mxGeometry>
        </mxCell>
        <mxCell id="j-uOjzAiipVmSamTyCxf-177" value="" style="endArrow=classic;html=1;rounded=0;exitX=0.5;exitY=1;exitDx=0;exitDy=0;entryX=0;entryY=0.5;entryDx=0;entryDy=0;" parent="WIyWlLk6GJQsqaUBKTNV-1" source="j-uOjzAiipVmSamTyCxf-169" target="j-uOjzAiipVmSamTyCxf-75" edge="1">
          <mxGeometry width="50" height="50" relative="1" as="geometry">
            <mxPoint x="530" y="2450" as="sourcePoint" />
            <mxPoint x="-710" y="2300" as="targetPoint" />
            <Array as="points">
              <mxPoint x="544" y="2710" />
              <mxPoint x="-710" y="2710" />
              <mxPoint x="-710" y="2360" />
              <mxPoint x="-710" y="1320" />
            </Array>
          </mxGeometry>
        </mxCell>
        <mxCell id="j-uOjzAiipVmSamTyCxf-179" value="" style="endArrow=classic;html=1;rounded=0;exitX=0.5;exitY=1;exitDx=0;exitDy=0;entryX=0;entryY=0.5;entryDx=0;entryDy=0;" parent="WIyWlLk6GJQsqaUBKTNV-1" source="j-uOjzAiipVmSamTyCxf-174" target="j-uOjzAiipVmSamTyCxf-75" edge="1">
          <mxGeometry width="50" height="50" relative="1" as="geometry">
            <mxPoint x="627.4999999999995" y="2270.3899999999994" as="sourcePoint" />
            <mxPoint x="-710" y="1200" as="targetPoint" />
            <Array as="points">
              <mxPoint x="700" y="2710" />
              <mxPoint x="-710" y="2710" />
              <mxPoint x="-710" y="1320" />
            </Array>
          </mxGeometry>
        </mxCell>
        <mxCell id="j-uOjzAiipVmSamTyCxf-180" value="" style="edgeStyle=orthogonalEdgeStyle;rounded=0;orthogonalLoop=1;jettySize=auto;html=1;" parent="WIyWlLk6GJQsqaUBKTNV-1" target="j-uOjzAiipVmSamTyCxf-181" edge="1">
          <mxGeometry relative="1" as="geometry">
            <mxPoint x="-1360" y="1190" as="sourcePoint" />
          </mxGeometry>
        </mxCell>
        <mxCell id="j-uOjzAiipVmSamTyCxf-185" value="" style="edgeStyle=orthogonalEdgeStyle;rounded=0;orthogonalLoop=1;jettySize=auto;html=1;" parent="WIyWlLk6GJQsqaUBKTNV-1" source="j-uOjzAiipVmSamTyCxf-181" target="j-uOjzAiipVmSamTyCxf-183" edge="1">
          <mxGeometry relative="1" as="geometry" />
        </mxCell>
        <mxCell id="j-uOjzAiipVmSamTyCxf-181" value="PUT &quot;Login Berhasil!&quot;" style="shape=parallelogram;perimeter=parallelogramPerimeter;whiteSpace=wrap;html=1;fixedSize=1;" parent="WIyWlLk6GJQsqaUBKTNV-1" vertex="1">
          <mxGeometry x="-1440" y="1220" width="160" height="40" as="geometry" />
        </mxCell>
        <mxCell id="j-uOjzAiipVmSamTyCxf-194" value="" style="edgeStyle=orthogonalEdgeStyle;rounded=0;orthogonalLoop=1;jettySize=auto;html=1;" parent="WIyWlLk6GJQsqaUBKTNV-1" source="j-uOjzAiipVmSamTyCxf-183" target="j-uOjzAiipVmSamTyCxf-192" edge="1">
          <mxGeometry relative="1" as="geometry" />
        </mxCell>
        <mxCell id="j-uOjzAiipVmSamTyCxf-183" value="" style="shape=parallelogram;perimeter=parallelogramPerimeter;whiteSpace=wrap;html=1;fixedSize=1;" parent="WIyWlLk6GJQsqaUBKTNV-1" vertex="1">
          <mxGeometry x="-1460" y="1320" width="200" height="100" as="geometry" />
        </mxCell>
        <mxCell id="j-uOjzAiipVmSamTyCxf-184" value="" style="endArrow=classic;html=1;rounded=0;" parent="WIyWlLk6GJQsqaUBKTNV-1" edge="1">
          <mxGeometry width="50" height="50" relative="1" as="geometry">
            <mxPoint x="-1275" y="1396.14" as="sourcePoint" />
            <mxPoint x="-1194" y="1396.14" as="targetPoint" />
          </mxGeometry>
        </mxCell>
        <mxCell id="j-uOjzAiipVmSamTyCxf-182" value="" style="shape=image;verticalLabelPosition=bottom;labelBackgroundColor=default;verticalAlign=top;aspect=fixed;imageAspect=0;image=data:image/png,iVBORw0KGgoAAAANSUhEUgAAAZYAAADoCAIAAABDxVXEAAAdMUlEQVR4Ae2dv27lNhaHp041RYoUAZQXmNaViwDbGX4DYwBjsJVLV97KhTNIgFSujcUWiwWChcsU0xspUqyxXYrMS+wTzOKQOvwjkbqSz9XVlfwFg1yK4jk8/Cj+TOpKvG+a3n/ff//9d99918veWwb+h1HOzWe4ds5CYF0E3vTDnXsI4b/PPM2Zm09a15Lpj2+//PrNkgFQ9yYIIGGTu3FuiZnb/+QGB4Offv78+d+ffgrHhsTHt1/++Oq3D9HD7fXN8/3FbdOEhD8XDkNiOD96JPU6CCBhk/t5bomZ2//kBgeDaRL24VNV77758483f34MfiUhCnV39j5J+NNT8zOnHLwCAkjY5E6eW2Lm9j+5wS80qErYD//46svvX/+Qu31/eeUlLCT8+XAYEsP5uVeOtk8ACZvcx3NLzNz+m6b58M+/f/70Qf7/+d/y7z9/a5d0f/3bfz///GMj6uNO/fyjxyP5PidfSP70s9i62VniJ5i3JnLqU1g0fvvb790p2OQ+wAACSgAJUxKjP+eWmLn9txIWZUUU57///IsAUKnyN7x+/JRKj9h114ZevFoFTPyIr15hT/jD1//L74KNBk9BCBQIIGEFKMNZc0vM3P5bCQszL52USaudhIUb9jJNS4oVVEkkTGdqTZNLXkXC5Eb+21+GEXMWAqMJIGGjUWnBuSVmbv9lCfNSJRL293/9VZva/eypEhLWRcTxoQkgYZOJzy0xc/vvS1icPR1AwlhITr7iMBgigIQN0Smem1ti5vbflbB08bhPCfvLv/7TuZXmccrt/P/949siWzIhMJUAEjaVWDO3xMztv5Uw/Ybxc7pyrEhY/O5Srdrb/0MLyfjlQP6NZFN8qGJyN2AAAUcACZt8IcwtMXP7787CJgOwG8ijrUzE7Bzx0DQNEjb5MphbYub2fwQS1jS9F4wmdwMGEHAEkLDJF8LcEjO3/6OQsMapGK95T776MOgSQMK6RHYezy0xc/vf2UAKQGBFBJCwyZ01t8TM7X9ygzGAwBETQMImd87cEjO3/8kNxgACR0xggxJ2xLQJDQIQ2DMBJGzPQHEHAQgckgASdkja1AUBCOyZABK2Z6C4gwAEDkkACTskbeqCAAT2TAAJ2zNQ3EEAAockgIQdkjZ1QQACeyaAhO0ZKO4gAIFDEtimhLnfHLx5vk/+XZ+2v/SVZt7fPJPvgeyVg/zaUIez+4E18uOvNO2DT3Ny9tTxc3/1cNJMzj+k5Oy7rm1K2L4p4Q8CEDhSAtuUMGZhy84umW3td7ZV4zl5tlWbtR2pOo0Ka5sSNqrpFIIABNZPAAlbfx/SAgi8YgJI2CvufJoOgfUTQMLW34e0AAKvmAAS9oo7n6ZDYP0EkLD19yEtgMArJoCEveLOp+kQWD8BJGz9fUgLIPCKCSBhr7jzaToE1k8ACVt/H9ICCLxiAkjYK+58mg6B9RPYtITJG2EXt+vvJFoAgf0SuL2+ebp8t1+fS3lDwpYiT70QWIwAEmZCf7ifen31szDZ4cBtBOY67PRR90eTw/OLsKWX/kF+93B38+w3nHIGau4Mu/tSxemt30dBnTjL8wu/VYM7cG7dfmHusP4/H1IMuMl3HHE7YTlrlx8C8GG7w95ODD4q7+fxXKvOwtPM1/SJhJl6Gwkz4ZtirBrUNI0b50EdRCxUEdywd0NdyjzdXQUxSsxdrVJSrWIY7x7urh4uU81y+qiaJfKh6WhUSt1e3zxeZmt/sc1ivvEylEuSV9igaE3TSE4UrMZJ4d3VU+pqXEilMLeQh4SZehEJM+GbYhw0SBJx0DqpSm6F6Fmff/aoNxCDeVtnUcJOzp7E8+ljqm5hmiNamYrLQPSnrl6JIahPJmFNI/GIN1fm+qJVt/OLp8uzrPaihF2fidSeuABCeAPhbPoUEmbqXiTMhG+KcatBHenpHDZ+n+Krh5NW2mQ25NZcYyRMy7S2bXStRnRnQ0Oxq6ykspWmxbaN3M37Tk4fnSjfXl89nOQCWpaw0/eXOsHUuobi2fQ5JMzUvUiYCd8UY6cvZ+m8RqxFCPKZUZQG90XVyZlfc6k8aZV97fMToqB3YaLnNOJhytdecVAlE7eShN08nnsJa1rx6s8BKxImC0wfIRI2pWu0+4/0k28kj7Rj9hKWaJC7DR+WZuJ2p4SJMMmaa7eEpa5SgfM35u/Hf3OfTqPi3K0iYVr4/ELv3GlOSy168BnBTzvBRMKQMMsAYxZmoTfJttWgVFzicizx1CpRXAz6NddOCZMCYeaVzn1ajehKSVJlnkxmXv6bh/hNYrgH336Lmi4bg3J1Kuocutv53s+5u4OGhCFh+QU47QgJm8bLUDpokCTi4jFKlfetSpTmy5rrNnsmI9yKCgFJ+fBkRpsIShGWbOlt/mCaJ2SW1Hlow5mH2ZMvLoeSH5QreJFIkplmXcJkgnlxi4QhYeHaeUECCXsBtJeZBAlrf0NTZ0xO0fTrOZmC+fGfSpjcaXq8Th8r60lYZ3LXzpLcXbZEI3L1LLajqzh62z6ZPbVfR/qYLRImq+PH6/wRkGJQm86Mdx7X30zuha2/D+stSCXMPy0V1n1OWfzcR7XM3ZsPD4U5HUkey+qvQBOd0hBUjLJTfrKWf4GgBvLZLmPTrFZM89mZeuhLZ/hWwclxOqErLUglyMAhrfX1pJEwU18zCzPhwxgCZgJImAkhEmbChzEEzASQMBNCJMyED2MImAkgYSaEh5MwU5gYQwACKyCw6dv5K+BPiBCAgIkAEmbChzEEILAsASRsWf7UDgEImAggYSZ8GEMAAssSQMKW5U/tEICAiQASZsKHMQQgsCwBJGxZ/tQOAQiYCCBhJnwYQwACyxJAwpblT+0QgICJABJmwocxBCCwLIFtSli+SYvbUsZtxUe+/9WfuTkkO/noXoZuqzLy/SY/++LQboiU7Rbptk7qbTrU/uZeLX9ZEbLVvk0JszHBGgIQWA2BbUrY3LMM/A/P5vY1y8DP8KyNWVjTNNuUsNX8BSFQCEDARgAJs/HDGgIQWJQAErYofiqHAARsBJAwGz+sIQCBRQkgYYvip3IIQMBGAAmz8cMaAhBYlAAStih+KocABGwEkDAbP6whAIFFCSBhi+KncghAwEYACbPxwxoCEFiUABK2KH4qhwAEbAQ2LWHyXv7FrQ0Q1hDYHgF+zdvUp4f7NW8kzNRRGG+WABJm6lokzIQPYwiYCSBhJoRImAkfxhAwE0DCTAiRMBM+jCFgJoCEmRAiYSZ8GEPATAAJMyFEwkz4MIaAmQASZkKIhJnwYQwBMwEkzIQQCTPhwxgCZgJImAkhEmbChzEEzASQMBNCJMyED2MImAkgYSaESJgJH8YQMBNAwkwIkTATPowhYCaAhJkQImEmfBhDwEwACTMhRMJM+DCGgJkAEmZCeDgJM4WJMQQgsAICm94vbAX8CRECEDARQMJM+DCGAASWJYCELcuf2iEAAROBTUsYu7aarg2MN0uA2/mmrj3c7fxJEiaFb57dv6fLdztb+P7yyhd+vr96ONlZnAIQOCICSJipM45Ywspi5NWqrGsifGWrhNHpo4qjqt7N84t+l0QiuTt7n7geTlbLn1+8LIDh6uLZ84skzncPdzfJYSy1/9So7kiqrcU5N58khEWSSJgJ+6okTIbf0+XZ4/2NQcIU19QBpnbhsypJoUSeqJafe4gm0nB7bdQv+QPweJ43rHY0lXAtzrn51OI/VD4SZiK9Igl7f3nlBo+MIiRsQq8HadiDFhxEwjpxdg4ntHwdRZEwUz+tSMK0nXNKmIyW9h7c8/Wpq/H08f7q4dLl353d+ptu7pSfVbU59/nspuCn6ZZv/TdNOkS9YXaqE4/zc30q3nyoobAC6n62ElZSn1KcEs/d2ftwql0si3mE06laJlx6Niyu01mYLxBOdUN0x7U4PZ9uPDm3ppEJZkCRxhPuEng/WvXu8lpy7k8kzEQYCUvwnT7mYyBM+mRI+1FxfRoUpxWR1iQV1qIfJz33Osyct3ZFFoaWJNJ7eRP9JC3Jkk4aHq57U9esOnePzLdF8oMip+1qmqakg827h+twTzApL210zUkbm0WWHwzFWYoncHNuEkkqBjkgeZXyeXTzHSFhJrZIWAWfv+/2Lg7abEDKz5L7WVW4nS+HQQGj0+CnUz7me018kFlVql/RhUvF8nm9Mb9jEA+9JPVW38mYd2WDIoSEy86L7R7tsbwn5iawo26fVeIMfzN8i6L/apwSZKEvppaPBOdNIWEmvkhYik+GR1gQtWNeB+0YCdOFUsnPsIS5ensKOM1P2pI0XV6g9bQvNLA61GuzMJ1gBnS+IeLQtUuxpEEV0uU467OnXXH6roy3TaeWL4Q4SxYSZsKKhAV8bmEo0yv3XxjhYyUszA4qfoYl7OK2kRrTucNkP6ElnUQrDV4L4kQvBNwWDyM8JNyJvJjSSKuQ8iW3qoniYYyKVeKcPgtLgnMy2l2wF9qlJml5zZv7EwkzEUbCAr50pDn58DePdNDqgGwk0VtIJpd+xc9OCWvnOEHFJvsJLekkgjT4xW92eztIjzSznbAMSVhXZ5uCTxXiQMyr804VG4oz/GlJbttH/zoN7E1j432ApnEd17bX929AnQDT7k6y5k4iYSbCa5IwGVrZQq97CSbX9G4ohcJy+bZVXJ/qhaXXdCgvCTeisniCFqgSeVfRzxgJ88MsPGpbjKfup9bmRBoaryaqYu1IdqGOW3CFCNOVr9M1317/pW1cSAYsvi3hsBRrLc66pIrKK2dpS6xX84Muuwqnli9Fuf88vdL27/nwHnlHUpkHvdCMUZ8vsxrlmkIQmIsAEmYiu6ZZ2M6GImE7EVHg+AggYaY+OWIJa9cCcYFTb2iyIBpcqtQ9cAYCSxFAwkzkDydhpjAxhgAEVkBg0/fCVsCfECEAARMBJMyED2MIQGBZAkjYsvypHQIQMBFAwkz4MIYABJYlsGkJC0+ELsuY2iFwZAT4RtLUIYf7RnKShElhHqow9SzGayGAhJl66oglrPCEV3xBRF+RyRo/9tFWfWcoM9YD99pQujmMPHS28/0+tX7hZ/auUnwf8IXebGYJ5Jv0/e2dXg/9dF7/haS5u8kjGHuZ7QTWFkDCxpIqlluThJ1fhJciZZj1r9ex19b8EjY2EukTN/ILel3srwNkCtvwvnRP0KsBSMl+KwZRV32NO5FIWPl6GOfGlZoS55TOHRMCEjaGUrXMmiQsbUTxMipmplZtesr12tvasOCvnzU2ErHMJKPv6uA5nXicwu6eGFbmqtNQT2trkDBRz90RDjqfEueUzh2stD2JhI2hVC2DhEU0cmm2N+D6C8m4R36YoTR+By7dFKG0TUJ3171YWUyJZBTmL65AssDUkHbs5a+7yIb9zpyfpGmF2WuMRVIdCUv3qHFpbW8+C+5JmIhCdWeRcjyuaSdh34v+nC4PtJWwkvok3LIZ5SK/CZBH3T9CwvpMJuSsVMJkmOVDSNo89s9j6aKPzLpn3TRE11Zu7EU1CXKW5Y+PxNdaGbTp0iz6d9JQ28s/MkklrLK3fWxylipJmP/htaKfEHwiWAHLpL32XeFn3R6np4lZkHLgJGwFvwnQC7yTgYR1gEw7XKWEub+xqiNJe+eTsLI0JFW7fbjiG+ljI+l6kGmL1tW5slVZVGFDFZKQZVQ+5lMJS2vpTbKyk3KgFekJ8V/47chOsbx2tS1LWDjbqU6aFhlKLw8uD3WqFU2c405gcdPX3GFeTKlmoWUHsbwnP/43ATI3hYNORxdKrCeL58K0r8L41Iz46S7czlXbnh2wivbVDeC1SPdqzgdnJg1yWSfLpRjV2Ei0zvgZhnFtdqPhhSoksUPCpAlJnHFtFeuNqThWfZ4Ab9d0A35ySsGbRhsyXKLip1w4N02OygvJrIOkdAA1XcLKcYpD1+/6xyaJ6SVJJOwl1ILNymZh7uqJShGa4RPhYu3kdw+Hh0r3bD444whx13eYJsR8qW1sJN3I0klQ5crW8EIVkhiUsESDUv+Ful1WR8Lk0I/VQT85peBbow0Z7Q3EeJ8rqa5UODXspLPb+UWHziAoV0i47KTeyl+1WnuVfCTTCWziYaWjJ3o5juLMwrQf9CrRY/8pl/jQDKJslfuQo+Gh0j2bD84oVekV7OQsWQS5KqpS248o5EgTdNWWDyEtouGFxkrCKWkyRCU2XZRlUitlBhnmC0lnm07BVLJ7fnJKGmzvN030IZKiH21asB5OBAkr7N8fFE18th2R8OlJuXRr59KqcgvkR/4mwHArHPCXXCq73C5yHglT7PEq0Rw/tNLVUH8olqyifUzJZZ0urPwF5C7ZSn5cMkQJ81LY+kn2yG/r8YPcVTR4gbrBk8ST3eNLnDy30qbjPDRWEl4Roquny3fJ3/aY/5zubR+BZCkvf8pHtUaKDPmpSJifkCrV9jZ/zY82LQunfpBImMbWRpt2ZYQ/JGFT4gzkJTR/LQXFrEdbP5P0VL3QSs4gYdpR2VWimTs/X2a10y0FIDAnASTMRHdl98KG24qEDfPh7FESQMJM3XLEEtauPuJCoN7QZOFgmtLXa+AMBOYigISZyB5OwkxhYgwBCKyAwKbvha2APyFCAAImAkiYCR/GEIDAsgSQsGX5UzsEIGAigISZ8GEMAQgsS2DTEiZPPKTPSS6LmtohcCwE+EbS1BOH+0ZykoRJYR6qMPUsxmshgISZeuqIJaz3hFeia2HvhKzxUqBnlZVo35JJnzULb8aERNeicvyS8vlGWp2X8ir1mLNHYUlq6b+4E1/zZh6dgNpTEgkzgVyThCUNLcvHqLEqL+gtLWHuJcEoZ0nDRiZHtVR9TSqsWwn63V/TV9njxlvqmM+9EEDCTBhXKmHl4TRqrC4vYWX9ndSNo1qqHicVTiUsfy+6zFwr4fPFBJCwF6MTw5VKmMwO+rOYUWN1h4TFPfLj7hSlPfJ1l9RYvh9P3jOiXNenxa3E5FTv3p8vH095/9JG3fhBE3FSme5sEeJJsXjztGl5kHLULiR7+0Z4RQtVBCe50mVdk0Wri9Cp5fsRbisHCTP158okrD9+0tanYzXNz9KDEhY38JEBrNJw+pjJQbufVysuibJk++RklcqBk6SzhzvdDkwLOD86vJONxob8l1tajjOKphOU4SAlKCdhlT3pdfvDJM7O7CyRsJ4I+iZXJaxSXkFt9RMJM/XsyiQstFWGQe/OfXlgBxufGJSwMLNoFee0Y+z3pfLSJhITy3fd9gz970XKBCoXka5hcBsSzlVebHdLk/K+8Pi93vXvhCq4NqUmPbV8v5dWUH91Myx5hcl1MNxoAgkzdexaJazzcxuewe6BPeEbyVRBZGahq7ZsN9SpElZYSPamHqoIaQCpdEpbKy0txukKu/hjtIPXzPBCUk3jbEsD9mdivhxL6zy6KIhTy2uNW/1Ewkw9u2oJy6cz1YGdA0qmJ+6EKIWbKeSSEX/IR/LjQ7nRPC8f8/Pq4lFWUcmhLxrchoTLz/2XJEzKF91qYRGXMSoWHqoQrUmmujXpqeXHprd7orb9NbV86meLaSTM1KsrlbB8uCoBHat6XP7MbMUkubcVRniSn458Z9veI5N0KF+cFeb1S3ldVfV86r2wpN5B/zK7ifMaV1HPpxaIWEQHk5jz+MJRkLDCnvQaZ7rFfvSvi2VtZnCZ/V7B1PKJl00mkTBTt65Iwrx8tAu6qB1J85OxkeQWkjLadYETp3IyOwj5yewjWQ09J3vkD0pModJUwtoVlraiGM8O/0m0qmVx1ZbGma86fZm0db1QEwnL9qSvz55i/NensZnSHYGn6qmrbWr5XoibykDCTN25Ignb3c7RErbbFSUgcCgCSJiJNBJmwocxBMwEkDATwiOWsN43WfWGyuKlXbMMLpHqHjgDgaUIIGEm8oeTMFOYGEMAAisgsOn9wlbAnxAhAAETASTMhA9jCEBgWQJI2LL8qR0CEDARQMJM+DCGAASWJbBpCZOHtuKz3cuCpnYIHA8BvpE09cXhvpGcJGHJg9366PlQM3moYogO546bABJm6p8jlrDqE15esArSNvbpfHnJJr5XZOJXMS68/VMpSfarJ4CEmS6B9UmY06mnfP/7FsGRSJjol+qvm04W1LbTaWMj75hxuAUCSJipF1cnYb6/y70+VghmnYXlu+Lo/tT+1zSqXTU28qoDTqyXQPliXmd7uJ2v/VYb0rpZQrnXa1bqVT+rEpbcU8t2Vkjz3ZtM9e8l+jFojjjRrSniFoZyNm7n4F+T2j1r05bwuQEC5Yt5nQ1DwrTfdNjrsf+UCY6/h1Xu9bJV7kOOyhLmdCpok5RppSRdGKqG9p22ORJDcOLyNKqyhHkzLVN1y4ntEihfzOtsLxKm/VYa0qkElHu9ZKUe08+ihFUXgFJv3MPv9DHc50pdhrTEgIQFHCR2EyhfzLvtjrEEEqa9UhCjTDvKvV6wUofZZ1HCeplhwpXMwvKZWua0PejHoKKWSnBcSHqzvlXJN3mbJFC+mNfZVCRM+60/pEVHuveM4hd/3q5vpf7yz55ayenqLMz94k6oWr9qzD0mR1U/SFhCiWQkgIRFFi9Ire4bSd/Gcq+bJMzv+65rQHE1eN+tztrN1FTpEj/pj4/5nZeT2/aiqslh3TtnNkegfDGvs5nMwrTfdolRudd3Wal30Yt0The0I+7prvolJk6G0vI7H4t1KuarUC0TRzJBC985dpuQTDNDPBown1sm0L0S1txWJEx7b6wYaXn/+TKr3EfvqLQw7Nyw79mQAYHxBJCw8awKJVe6kCy0pP4DseXCY3O7SzyZqcXHu8Z6oRwEagSQsBqZUflHLGFxzbWzJZWF2067cQU6C0n0axw2So0kgISNBFUudjgJK9dPLgQgsB0Cm74Xtp1uoiUQgECZABJW5kIuBCCwCgJI2Cq6iSAhAIEyASSszIVcCEBgFQQ2LWHyvZ4++76K3iBICByEAN9ImjAf7htJJMzUURhvlgASZupaJMyED2MImAkgYSaESJgJH8YQMBNAwkwIkTATPowhYCaAhJkQImEmfBhDwEwACTMhRMJM+DCGgJkAEmZCiISZ8GEMATMBJMyEEAkz4cMYAmYCSJgJIRJmwocxBMwEkDATQiTMhA9jCJgJIGEmhEiYCR/GEDATQMJMCJEwEz6MIWAmgISZECJhJnwYQ8BMAAkzIUTCTPgwhoCZABJmQng4CTOFiTEEILACApveL2wF/AkRAhAwEUDCTPgwhgAEliWAhC3Ln9ohAAETASTMhA9jCEBgWQJI2LL8qR0CEDARQMJM+DCGAASWJYCELcuf2iEAARMBJMyED2MIQGBZAkjYsvypHQIQMBHYpoTdXt883+f/rk+bpiH/+SAc3l9edfnfnb1vGvKf98qhkV9Kza/z+6uHk2ZyvklDFjbepoQtDJXqIQCBQxHYpoQx2zrMbKvGmdnWfmdbNZ6TZ1u1Wduh5GaOerYpYXOQwicEIHCEBJCwI+wUQoIABMYSQMLGkqIcBCBwhASQsCPsFEKCAATGEkDCxpKiHAQgcIQEkLAj7BRCggAExhJAwsaSohwEIHCEBJCwI+wUQoIABMYSQMLGkqIcBCBwhAQKEnaEURISBCAAgSIBJKyIhUwIQGAdBJCwdfQTUUIAAkUCc0vYt7/9/tVvH4pVkwkBCEDASqAiYe6N9qfLd/5VeEn4/6bmN03z8e2XP97+Yo0TewhAAAIFAkMS9nje7p0mCf+fk7AJ+c7ql1/ffPn96x/UB58QgAAE9kWgImHN6eP9jVOukPA1hsOQGM73Z7/58483f37cV8z4gQAEINASqEnYngHJROzXb/bsFHcQgMCrJ3AgCZM7YqwlX/3VBgAI7J3AASWMm/p77z0cQuDVE0DCXv0lAAAIrJnAASWMheSaLxRih8BxEjiQhHE7/zi7n6ggsHYCh5EwHqpY+3VC/BA4UgKHkDCmYEfa+YQFgfUTmF/CeMFo/VcJLYDA0RL4P8jmhS8xjDQkAAAAAElFTkSuQmCC;" parent="WIyWlLk6GJQsqaUBKTNV-1" vertex="1">
          <mxGeometry x="-1440" y="1324.28" width="160" height="91.43" as="geometry" />
        </mxCell>
        <mxCell id="j-uOjzAiipVmSamTyCxf-187" value="" style="edgeStyle=orthogonalEdgeStyle;rounded=0;orthogonalLoop=1;jettySize=auto;html=1;" parent="WIyWlLk6GJQsqaUBKTNV-1" target="j-uOjzAiipVmSamTyCxf-189" edge="1">
          <mxGeometry relative="1" as="geometry">
            <mxPoint x="-1870" y="1510" as="sourcePoint" />
          </mxGeometry>
        </mxCell>
        <mxCell id="j-uOjzAiipVmSamTyCxf-188" value="" style="edgeStyle=orthogonalEdgeStyle;rounded=0;orthogonalLoop=1;jettySize=auto;html=1;" parent="WIyWlLk6GJQsqaUBKTNV-1" source="j-uOjzAiipVmSamTyCxf-189" target="j-uOjzAiipVmSamTyCxf-191" edge="1">
          <mxGeometry relative="1" as="geometry" />
        </mxCell>
        <mxCell id="j-uOjzAiipVmSamTyCxf-189" value="adm_name = input(&quot;Masukkan nama kontak : &quot;)" style="shape=parallelogram;perimeter=parallelogramPerimeter;whiteSpace=wrap;html=1;fixedSize=1;" parent="WIyWlLk6GJQsqaUBKTNV-1" vertex="1">
          <mxGeometry x="-1972.5" y="1535" width="205" height="40" as="geometry" />
        </mxCell>
        <mxCell id="j-uOjzAiipVmSamTyCxf-211" value="" style="edgeStyle=orthogonalEdgeStyle;rounded=0;orthogonalLoop=1;jettySize=auto;html=1;" parent="WIyWlLk6GJQsqaUBKTNV-1" source="j-uOjzAiipVmSamTyCxf-191" target="j-uOjzAiipVmSamTyCxf-209" edge="1">
          <mxGeometry relative="1" as="geometry" />
        </mxCell>
        <mxCell id="j-uOjzAiipVmSamTyCxf-191" value="adm_num = input(&quot;Masukkan nomor kontak : &quot;)" style="shape=parallelogram;perimeter=parallelogramPerimeter;whiteSpace=wrap;html=1;fixedSize=1;" parent="WIyWlLk6GJQsqaUBKTNV-1" vertex="1">
          <mxGeometry x="-1972.5" y="1605" width="205" height="40" as="geometry" />
        </mxCell>
        <mxCell id="j-uOjzAiipVmSamTyCxf-196" value="" style="edgeStyle=orthogonalEdgeStyle;rounded=0;orthogonalLoop=1;jettySize=auto;html=1;" parent="WIyWlLk6GJQsqaUBKTNV-1" source="j-uOjzAiipVmSamTyCxf-192" target="j-uOjzAiipVmSamTyCxf-195" edge="1">
          <mxGeometry relative="1" as="geometry" />
        </mxCell>
        <mxCell id="j-uOjzAiipVmSamTyCxf-198" value="" style="edgeStyle=orthogonalEdgeStyle;rounded=0;orthogonalLoop=1;jettySize=auto;html=1;" parent="WIyWlLk6GJQsqaUBKTNV-1" source="j-uOjzAiipVmSamTyCxf-192" target="j-uOjzAiipVmSamTyCxf-197" edge="1">
          <mxGeometry relative="1" as="geometry" />
        </mxCell>
        <mxCell id="j-uOjzAiipVmSamTyCxf-200" value="" style="edgeStyle=orthogonalEdgeStyle;rounded=0;orthogonalLoop=1;jettySize=auto;html=1;" parent="WIyWlLk6GJQsqaUBKTNV-1" source="j-uOjzAiipVmSamTyCxf-192" target="j-uOjzAiipVmSamTyCxf-199" edge="1">
          <mxGeometry relative="1" as="geometry" />
        </mxCell>
        <mxCell id="j-uOjzAiipVmSamTyCxf-202" value="" style="edgeStyle=orthogonalEdgeStyle;rounded=0;orthogonalLoop=1;jettySize=auto;html=1;" parent="WIyWlLk6GJQsqaUBKTNV-1" source="j-uOjzAiipVmSamTyCxf-192" target="j-uOjzAiipVmSamTyCxf-201" edge="1">
          <mxGeometry relative="1" as="geometry" />
        </mxCell>
        <mxCell id="j-uOjzAiipVmSamTyCxf-280" style="edgeStyle=orthogonalEdgeStyle;rounded=0;orthogonalLoop=1;jettySize=auto;html=1;entryX=0.5;entryY=1;entryDx=0;entryDy=0;" parent="WIyWlLk6GJQsqaUBKTNV-1" source="j-uOjzAiipVmSamTyCxf-192" target="j-uOjzAiipVmSamTyCxf-278" edge="1">
          <mxGeometry relative="1" as="geometry" />
        </mxCell>
        <mxCell id="j-uOjzAiipVmSamTyCxf-192" value="adm_choose = input(&quot;Pilih Fitur : &quot;)" style="shape=parallelogram;perimeter=parallelogramPerimeter;whiteSpace=wrap;html=1;fixedSize=1;" parent="WIyWlLk6GJQsqaUBKTNV-1" vertex="1">
          <mxGeometry x="-1475" y="1450" width="230" height="40" as="geometry" />
        </mxCell>
        <mxCell id="j-uOjzAiipVmSamTyCxf-195" value="adm_choose = 1" style="rhombus;whiteSpace=wrap;html=1;" parent="WIyWlLk6GJQsqaUBKTNV-1" vertex="1">
          <mxGeometry x="-1910" y="1430" width="80" height="80" as="geometry" />
        </mxCell>
        <mxCell id="j-uOjzAiipVmSamTyCxf-237" value="" style="edgeStyle=orthogonalEdgeStyle;rounded=0;orthogonalLoop=1;jettySize=auto;html=1;" parent="WIyWlLk6GJQsqaUBKTNV-1" source="j-uOjzAiipVmSamTyCxf-197" target="j-uOjzAiipVmSamTyCxf-216" edge="1">
          <mxGeometry relative="1" as="geometry" />
        </mxCell>
        <mxCell id="j-uOjzAiipVmSamTyCxf-197" value="adm_choose = 2" style="rhombus;whiteSpace=wrap;html=1;" parent="WIyWlLk6GJQsqaUBKTNV-1" vertex="1">
          <mxGeometry x="-1660" y="1565" width="80" height="80" as="geometry" />
        </mxCell>
        <mxCell id="j-uOjzAiipVmSamTyCxf-199" value="adm_choose = 3" style="rhombus;whiteSpace=wrap;html=1;" parent="WIyWlLk6GJQsqaUBKTNV-1" vertex="1">
          <mxGeometry x="-1400" y="1540" width="80" height="80" as="geometry" />
        </mxCell>
        <mxCell id="j-uOjzAiipVmSamTyCxf-207" style="edgeStyle=orthogonalEdgeStyle;rounded=0;orthogonalLoop=1;jettySize=auto;html=1;entryX=0.5;entryY=1;entryDx=0;entryDy=0;" parent="WIyWlLk6GJQsqaUBKTNV-1" source="j-uOjzAiipVmSamTyCxf-201" target="j-uOjzAiipVmSamTyCxf-206" edge="1">
          <mxGeometry relative="1" as="geometry" />
        </mxCell>
        <mxCell id="j-uOjzAiipVmSamTyCxf-201" value="adm_choose = 4" style="rhombus;whiteSpace=wrap;html=1;" parent="WIyWlLk6GJQsqaUBKTNV-1" vertex="1">
          <mxGeometry x="-1130" y="1430" width="80" height="80" as="geometry" />
        </mxCell>
        <mxCell id="j-uOjzAiipVmSamTyCxf-208" style="edgeStyle=orthogonalEdgeStyle;rounded=0;orthogonalLoop=1;jettySize=auto;html=1;entryX=0;entryY=0.5;entryDx=0;entryDy=0;" parent="WIyWlLk6GJQsqaUBKTNV-1" source="j-uOjzAiipVmSamTyCxf-206" target="j-uOjzAiipVmSamTyCxf-75" edge="1">
          <mxGeometry relative="1" as="geometry" />
        </mxCell>
        <mxCell id="j-uOjzAiipVmSamTyCxf-206" value="print(&quot;Keluar dari mode admin . . . &quot;)" style="shape=parallelogram;perimeter=parallelogramPerimeter;whiteSpace=wrap;html=1;fixedSize=1;" parent="WIyWlLk6GJQsqaUBKTNV-1" vertex="1">
          <mxGeometry x="-1000" y="1290" width="120" height="60" as="geometry" />
        </mxCell>
        <mxCell id="j-uOjzAiipVmSamTyCxf-212" style="edgeStyle=orthogonalEdgeStyle;rounded=0;orthogonalLoop=1;jettySize=auto;html=1;entryX=0;entryY=0.5;entryDx=0;entryDy=0;" parent="WIyWlLk6GJQsqaUBKTNV-1" source="j-uOjzAiipVmSamTyCxf-209" target="j-uOjzAiipVmSamTyCxf-183" edge="1">
          <mxGeometry relative="1" as="geometry">
            <Array as="points">
              <mxPoint x="-2040" y="1700" />
              <mxPoint x="-2040" y="1370" />
            </Array>
          </mxGeometry>
        </mxCell>
        <UserObject label="default_contacts.append({&quot;name&quot;: adm_name, &quot;number&quot;: adm_num})" link="default_contacts.append({&quot;name&quot;: adm_name, &quot;number&quot;: adm_num})" id="j-uOjzAiipVmSamTyCxf-209">
          <mxCell style="rounded=0;whiteSpace=wrap;html=1;" parent="WIyWlLk6GJQsqaUBKTNV-1" vertex="1">
            <mxGeometry x="-2005" y="1677" width="270" height="46" as="geometry" />
          </mxCell>
        </UserObject>
        <mxCell id="Pe8v_tdV25wXCAUM1Yoh-1" value="" style="edgeStyle=orthogonalEdgeStyle;rounded=0;orthogonalLoop=1;jettySize=auto;html=1;" parent="WIyWlLk6GJQsqaUBKTNV-1" source="j-uOjzAiipVmSamTyCxf-216" target="Pe8v_tdV25wXCAUM1Yoh-0" edge="1">
          <mxGeometry relative="1" as="geometry" />
        </mxCell>
        <UserObject label="for contact in user_data.values():" link="for contact in user_data.values():" id="j-uOjzAiipVmSamTyCxf-216">
          <mxCell style="rounded=0;whiteSpace=wrap;html=1;" parent="WIyWlLk6GJQsqaUBKTNV-1" vertex="1">
            <mxGeometry x="-1680" y="1670" width="120" height="60" as="geometry" />
          </mxCell>
        </UserObject>
        <mxCell id="j-uOjzAiipVmSamTyCxf-217" value="" style="edgeStyle=orthogonalEdgeStyle;rounded=0;orthogonalLoop=1;jettySize=auto;html=1;" parent="WIyWlLk6GJQsqaUBKTNV-1" source="j-uOjzAiipVmSamTyCxf-218" target="j-uOjzAiipVmSamTyCxf-220" edge="1">
          <mxGeometry relative="1" as="geometry" />
        </mxCell>
        <mxCell id="j-uOjzAiipVmSamTyCxf-218" value="print(f&quot;Nama : {c[&#39;name&#39;]}\nNomor : {c[&#39;number&#39;]}\nE-mail : {c[&#39;email&#39;]}\nSocial : {c[&#39;social&#39;]}\n&quot;)" style="shape=parallelogram;perimeter=parallelogramPerimeter;whiteSpace=wrap;html=1;fixedSize=1;" parent="WIyWlLk6GJQsqaUBKTNV-1" vertex="1">
          <mxGeometry x="-1722.25" y="1860" width="204.49" height="100" as="geometry" />
        </mxCell>
        <mxCell id="j-uOjzAiipVmSamTyCxf-219" value="" style="edgeStyle=orthogonalEdgeStyle;rounded=0;orthogonalLoop=1;jettySize=auto;html=1;" parent="WIyWlLk6GJQsqaUBKTNV-1" source="j-uOjzAiipVmSamTyCxf-220" target="j-uOjzAiipVmSamTyCxf-222" edge="1">
          <mxGeometry relative="1" as="geometry" />
        </mxCell>
        <mxCell id="j-uOjzAiipVmSamTyCxf-220" value="print(&quot;Kontak lainnya:&quot;)" style="shape=parallelogram;perimeter=parallelogramPerimeter;whiteSpace=wrap;html=1;fixedSize=1;" parent="WIyWlLk6GJQsqaUBKTNV-1" vertex="1">
          <mxGeometry x="-1694.29" y="2000" width="148.57" height="41.91" as="geometry" />
        </mxCell>
        <mxCell id="j-uOjzAiipVmSamTyCxf-221" value="" style="edgeStyle=orthogonalEdgeStyle;rounded=0;orthogonalLoop=1;jettySize=auto;html=1;" parent="WIyWlLk6GJQsqaUBKTNV-1" source="j-uOjzAiipVmSamTyCxf-222" target="j-uOjzAiipVmSamTyCxf-223" edge="1">
          <mxGeometry relative="1" as="geometry" />
        </mxCell>
        <mxCell id="j-uOjzAiipVmSamTyCxf-222" value="for contact in default_contacts:" style="rounded=0;whiteSpace=wrap;html=1;" parent="WIyWlLk6GJQsqaUBKTNV-1" vertex="1">
          <mxGeometry x="-1698.18" y="2070" width="156.33" height="60" as="geometry" />
        </mxCell>
        <mxCell id="j-uOjzAiipVmSamTyCxf-223" value="print(f&quot;Nama : {contact[&#39;name&#39;]}\nNomor : {contact[&#39;number&#39;]}\n&quot;)" style="shape=parallelogram;perimeter=parallelogramPerimeter;whiteSpace=wrap;html=1;fixedSize=1;" parent="WIyWlLk6GJQsqaUBKTNV-1" vertex="1">
          <mxGeometry x="-1693.18" y="2175" width="146.33" height="70" as="geometry" />
        </mxCell>
        <mxCell id="j-uOjzAiipVmSamTyCxf-238" value="" style="edgeStyle=orthogonalEdgeStyle;rounded=0;orthogonalLoop=1;jettySize=auto;html=1;" parent="WIyWlLk6GJQsqaUBKTNV-1" target="j-uOjzAiipVmSamTyCxf-240" edge="1">
          <mxGeometry relative="1" as="geometry">
            <mxPoint x="-1359.99" y="1620" as="sourcePoint" />
          </mxGeometry>
        </mxCell>
        <mxCell id="j-uOjzAiipVmSamTyCxf-239" value="" style="edgeStyle=orthogonalEdgeStyle;rounded=0;orthogonalLoop=1;jettySize=auto;html=1;" parent="WIyWlLk6GJQsqaUBKTNV-1" source="j-uOjzAiipVmSamTyCxf-240" target="j-uOjzAiipVmSamTyCxf-241" edge="1">
          <mxGeometry relative="1" as="geometry" />
        </mxCell>
        <mxCell id="j-uOjzAiipVmSamTyCxf-240" value="for i, contact in enumerate(default_contacts):" style="rounded=0;whiteSpace=wrap;html=1;" parent="WIyWlLk6GJQsqaUBKTNV-1" vertex="1">
          <mxGeometry x="-1438.17" y="1648" width="156.33" height="60" as="geometry" />
        </mxCell>
        <mxCell id="j-uOjzAiipVmSamTyCxf-243" value="" style="edgeStyle=orthogonalEdgeStyle;rounded=0;orthogonalLoop=1;jettySize=auto;html=1;" parent="WIyWlLk6GJQsqaUBKTNV-1" source="j-uOjzAiipVmSamTyCxf-241" target="j-uOjzAiipVmSamTyCxf-242" edge="1">
          <mxGeometry relative="1" as="geometry" />
        </mxCell>
        <mxCell id="j-uOjzAiipVmSamTyCxf-241" value="print(f&quot;Nama : {contact[&#39;name&#39;]}\nNomor : {contact[&#39;number&#39;]}\n&quot;)" style="shape=parallelogram;perimeter=parallelogramPerimeter;whiteSpace=wrap;html=1;fixedSize=1;" parent="WIyWlLk6GJQsqaUBKTNV-1" vertex="1">
          <mxGeometry x="-1433.17" y="1753" width="146.33" height="70" as="geometry" />
        </mxCell>
        <mxCell id="Pe8v_tdV25wXCAUM1Yoh-3" value="" style="edgeStyle=orthogonalEdgeStyle;rounded=0;orthogonalLoop=1;jettySize=auto;html=1;" parent="WIyWlLk6GJQsqaUBKTNV-1" source="j-uOjzAiipVmSamTyCxf-242" target="j-uOjzAiipVmSamTyCxf-246" edge="1">
          <mxGeometry relative="1" as="geometry" />
        </mxCell>
        <mxCell id="j-uOjzAiipVmSamTyCxf-242" value="match_adm_ch = int(input(&quot;Pilih kontak yang ingin diubah (hanya angka) : &quot;)) - 1" style="shape=parallelogram;perimeter=parallelogramPerimeter;whiteSpace=wrap;html=1;fixedSize=1;" parent="WIyWlLk6GJQsqaUBKTNV-1" vertex="1">
          <mxGeometry x="-1455" y="1870" width="190.01" height="60" as="geometry" />
        </mxCell>
        <mxCell id="j-uOjzAiipVmSamTyCxf-251" value="" style="edgeStyle=orthogonalEdgeStyle;rounded=0;orthogonalLoop=1;jettySize=auto;html=1;" parent="WIyWlLk6GJQsqaUBKTNV-1" source="j-uOjzAiipVmSamTyCxf-246" target="j-uOjzAiipVmSamTyCxf-248" edge="1">
          <mxGeometry relative="1" as="geometry" />
        </mxCell>
        <mxCell id="j-uOjzAiipVmSamTyCxf-246" value="match_adm_ch &amp;gt;= 0 and match_adm_ch &amp;lt;= len(default_contact)" style="rhombus;whiteSpace=wrap;html=1;" parent="WIyWlLk6GJQsqaUBKTNV-1" vertex="1">
          <mxGeometry x="-1464.99" y="2035" width="210" height="95" as="geometry" />
        </mxCell>
        <mxCell id="j-uOjzAiipVmSamTyCxf-252" value="" style="edgeStyle=orthogonalEdgeStyle;rounded=0;orthogonalLoop=1;jettySize=auto;html=1;" parent="WIyWlLk6GJQsqaUBKTNV-1" source="j-uOjzAiipVmSamTyCxf-248" target="j-uOjzAiipVmSamTyCxf-249" edge="1">
          <mxGeometry relative="1" as="geometry" />
        </mxCell>
        <mxCell id="j-uOjzAiipVmSamTyCxf-248" value="new_adm_name = input(&quot;Nama : &quot;)" style="shape=parallelogram;perimeter=parallelogramPerimeter;whiteSpace=wrap;html=1;fixedSize=1;" parent="WIyWlLk6GJQsqaUBKTNV-1" vertex="1">
          <mxGeometry x="-1480" y="2161.91" width="239.99" height="40" as="geometry" />
        </mxCell>
        <mxCell id="j-uOjzAiipVmSamTyCxf-254" value="" style="edgeStyle=orthogonalEdgeStyle;rounded=0;orthogonalLoop=1;jettySize=auto;html=1;" parent="WIyWlLk6GJQsqaUBKTNV-1" source="j-uOjzAiipVmSamTyCxf-249" target="j-uOjzAiipVmSamTyCxf-253" edge="1">
          <mxGeometry relative="1" as="geometry" />
        </mxCell>
        <mxCell id="j-uOjzAiipVmSamTyCxf-249" value="new_adm_num = input(&quot;Nomor : &quot;)" style="shape=parallelogram;perimeter=parallelogramPerimeter;whiteSpace=wrap;html=1;fixedSize=1;" parent="WIyWlLk6GJQsqaUBKTNV-1" vertex="1">
          <mxGeometry x="-1480" y="2230" width="239.99" height="40" as="geometry" />
        </mxCell>
        <mxCell id="j-uOjzAiipVmSamTyCxf-253" value="default_contacts[match_adm_ch][&quot;name&quot;] = new_adm_name&#xa;default_contacts[match_adm_ch][&quot;number&quot;] = new_adm_num" style="rounded=0;whiteSpace=wrap;html=1;" parent="WIyWlLk6GJQsqaUBKTNV-1" vertex="1">
          <mxGeometry x="-1510.01" y="2308.09" width="299.99" height="60" as="geometry" />
        </mxCell>
        <mxCell id="j-uOjzAiipVmSamTyCxf-255" value="" style="edgeStyle=orthogonalEdgeStyle;rounded=0;orthogonalLoop=1;jettySize=auto;html=1;" parent="WIyWlLk6GJQsqaUBKTNV-1" target="j-uOjzAiipVmSamTyCxf-256" edge="1">
          <mxGeometry relative="1" as="geometry">
            <mxPoint x="-1254.99" y="2081.91" as="sourcePoint" />
          </mxGeometry>
        </mxCell>
        <mxCell id="j-uOjzAiipVmSamTyCxf-256" value="print(&quot;Kontak tidak ada&quot;)" style="shape=parallelogram;perimeter=parallelogramPerimeter;whiteSpace=wrap;html=1;fixedSize=1;" parent="WIyWlLk6GJQsqaUBKTNV-1" vertex="1">
          <mxGeometry x="-1215.65" y="2051.91" width="120" height="60" as="geometry" />
        </mxCell>
        <mxCell id="j-uOjzAiipVmSamTyCxf-257" value="" style="endArrow=classic;html=1;rounded=0;" parent="WIyWlLk6GJQsqaUBKTNV-1" edge="1">
          <mxGeometry width="50" height="50" relative="1" as="geometry">
            <mxPoint x="245" y="1248.75" as="sourcePoint" />
            <mxPoint x="315" y="1248.75" as="targetPoint" />
          </mxGeometry>
        </mxCell>
        <mxCell id="j-uOjzAiipVmSamTyCxf-258" value="No" style="text;html=1;align=center;verticalAlign=middle;whiteSpace=wrap;rounded=0;" parent="WIyWlLk6GJQsqaUBKTNV-1" vertex="1">
          <mxGeometry x="-1264.99" y="2051.91" width="60" height="30" as="geometry" />
        </mxCell>
        <mxCell id="j-uOjzAiipVmSamTyCxf-259" value="Yes" style="text;html=1;align=center;verticalAlign=middle;whiteSpace=wrap;rounded=0;" parent="WIyWlLk6GJQsqaUBKTNV-1" vertex="1">
          <mxGeometry x="-1370" y="2125" width="60" height="30" as="geometry" />
        </mxCell>
        <mxCell id="j-uOjzAiipVmSamTyCxf-261" value="Y" style="text;html=1;align=center;verticalAlign=middle;whiteSpace=wrap;rounded=0;" parent="WIyWlLk6GJQsqaUBKTNV-1" vertex="1">
          <mxGeometry x="-327" y="2070" width="60" height="30" as="geometry" />
        </mxCell>
        <mxCell id="j-uOjzAiipVmSamTyCxf-262" value="N" style="text;html=1;align=center;verticalAlign=middle;whiteSpace=wrap;rounded=0;" parent="WIyWlLk6GJQsqaUBKTNV-1" vertex="1">
          <mxGeometry x="-422" y="2150" width="60" height="30" as="geometry" />
        </mxCell>
        <mxCell id="j-uOjzAiipVmSamTyCxf-266" value="else" style="text;html=1;align=center;verticalAlign=middle;whiteSpace=wrap;rounded=0;" parent="WIyWlLk6GJQsqaUBKTNV-1" vertex="1">
          <mxGeometry x="-482" y="2070" width="60" height="30" as="geometry" />
        </mxCell>
        <mxCell id="j-uOjzAiipVmSamTyCxf-267" value="Y" style="text;html=1;align=center;verticalAlign=middle;whiteSpace=wrap;rounded=0;" parent="WIyWlLk6GJQsqaUBKTNV-1" vertex="1">
          <mxGeometry x="-312" y="1865" width="60" height="30" as="geometry" />
        </mxCell>
        <mxCell id="j-uOjzAiipVmSamTyCxf-268" value="N" style="text;html=1;align=center;verticalAlign=middle;whiteSpace=wrap;rounded=0;" parent="WIyWlLk6GJQsqaUBKTNV-1" vertex="1">
          <mxGeometry x="-237" y="1930" width="60" height="30" as="geometry" />
        </mxCell>
        <mxCell id="j-uOjzAiipVmSamTyCxf-269" value="else" style="text;html=1;align=center;verticalAlign=middle;whiteSpace=wrap;rounded=0;" parent="WIyWlLk6GJQsqaUBKTNV-1" vertex="1">
          <mxGeometry x="-200" y="1860" width="60" height="30" as="geometry" />
        </mxCell>
        <mxCell id="j-uOjzAiipVmSamTyCxf-270" value="No" style="text;html=1;align=center;verticalAlign=middle;whiteSpace=wrap;rounded=0;" parent="WIyWlLk6GJQsqaUBKTNV-1" vertex="1">
          <mxGeometry x="277.67" y="2140" width="60" height="30" as="geometry" />
        </mxCell>
        <mxCell id="j-uOjzAiipVmSamTyCxf-271" value="Yes" style="text;html=1;align=center;verticalAlign=middle;whiteSpace=wrap;rounded=0;" parent="WIyWlLk6GJQsqaUBKTNV-1" vertex="1">
          <mxGeometry x="183.67000000000002" y="2195" width="60" height="30" as="geometry" />
        </mxCell>
        <mxCell id="j-uOjzAiipVmSamTyCxf-272" value="No" style="text;html=1;align=center;verticalAlign=middle;whiteSpace=wrap;rounded=0;" parent="WIyWlLk6GJQsqaUBKTNV-1" vertex="1">
          <mxGeometry x="582.5" y="2140" width="60" height="30" as="geometry" />
        </mxCell>
        <mxCell id="j-uOjzAiipVmSamTyCxf-273" value="Yes" style="text;html=1;align=center;verticalAlign=middle;whiteSpace=wrap;rounded=0;" parent="WIyWlLk6GJQsqaUBKTNV-1" vertex="1">
          <mxGeometry x="489.34" y="2200" width="60" height="30" as="geometry" />
        </mxCell>
        <mxCell id="j-uOjzAiipVmSamTyCxf-276" style="edgeStyle=orthogonalEdgeStyle;rounded=0;orthogonalLoop=1;jettySize=auto;html=1;entryX=1;entryY=0.5;entryDx=0;entryDy=0;" parent="WIyWlLk6GJQsqaUBKTNV-1" source="j-uOjzAiipVmSamTyCxf-274" target="j-uOjzAiipVmSamTyCxf-6" edge="1">
          <mxGeometry relative="1" as="geometry">
            <Array as="points">
              <mxPoint x="560" y="1440" />
            </Array>
          </mxGeometry>
        </mxCell>
        <mxCell id="j-uOjzAiipVmSamTyCxf-274" value="ans &amp;lt; 1 or ans &amp;gt; 5&amp;nbsp;" style="rhombus;whiteSpace=wrap;html=1;" parent="WIyWlLk6GJQsqaUBKTNV-1" vertex="1">
          <mxGeometry x="520" y="1460" width="80" height="80" as="geometry" />
        </mxCell>
        <mxCell id="j-uOjzAiipVmSamTyCxf-275" value="" style="endArrow=classic;html=1;rounded=0;exitX=1;exitY=0.5;exitDx=0;exitDy=0;entryX=0.5;entryY=1;entryDx=0;entryDy=0;" parent="WIyWlLk6GJQsqaUBKTNV-1" source="j-uOjzAiipVmSamTyCxf-11" target="j-uOjzAiipVmSamTyCxf-274" edge="1">
          <mxGeometry width="50" height="50" relative="1" as="geometry">
            <mxPoint x="540" y="1530" as="sourcePoint" />
            <mxPoint x="590" y="1480" as="targetPoint" />
            <Array as="points">
              <mxPoint x="560" y="1575" />
            </Array>
          </mxGeometry>
        </mxCell>
        <mxCell id="j-uOjzAiipVmSamTyCxf-277" value="print(&quot;Perintah tidak ditemukan (antara 1 - 5)&quot;)" style="shape=parallelogram;perimeter=parallelogramPerimeter;whiteSpace=wrap;html=1;fixedSize=1;" parent="WIyWlLk6GJQsqaUBKTNV-1" vertex="1">
          <mxGeometry x="374" y="1410" width="160" height="60" as="geometry" />
        </mxCell>
        <mxCell id="j-uOjzAiipVmSamTyCxf-279" style="edgeStyle=orthogonalEdgeStyle;rounded=0;orthogonalLoop=1;jettySize=auto;html=1;entryX=0;entryY=0.5;entryDx=0;entryDy=0;" parent="WIyWlLk6GJQsqaUBKTNV-1" source="j-uOjzAiipVmSamTyCxf-278" target="j-uOjzAiipVmSamTyCxf-183" edge="1">
          <mxGeometry relative="1" as="geometry">
            <Array as="points">
              <mxPoint x="-1640" y="1290" />
              <mxPoint x="-1640" y="1370" />
            </Array>
          </mxGeometry>
        </mxCell>
        <mxCell id="j-uOjzAiipVmSamTyCxf-278" value="adm_choose &amp;lt; 1 or adm_choose &amp;gt; 4" style="rhombus;whiteSpace=wrap;html=1;" parent="WIyWlLk6GJQsqaUBKTNV-1" vertex="1">
          <mxGeometry x="-1820" y="1250" width="110" height="80" as="geometry" />
        </mxCell>
        <mxCell id="j-uOjzAiipVmSamTyCxf-281" value="Yes" style="text;html=1;align=center;verticalAlign=middle;whiteSpace=wrap;rounded=0;" parent="WIyWlLk6GJQsqaUBKTNV-1" vertex="1">
          <mxGeometry x="175" y="1190" width="60" height="30" as="geometry" />
        </mxCell>
        <mxCell id="j-uOjzAiipVmSamTyCxf-282" value="No" style="text;html=1;align=center;verticalAlign=middle;whiteSpace=wrap;rounded=0;" parent="WIyWlLk6GJQsqaUBKTNV-1" vertex="1">
          <mxGeometry x="-32" y="1080" width="60" height="30" as="geometry" />
        </mxCell>
        <mxCell id="j-uOjzAiipVmSamTyCxf-283" value="Yes" style="text;html=1;align=center;verticalAlign=middle;whiteSpace=wrap;rounded=0;" parent="WIyWlLk6GJQsqaUBKTNV-1" vertex="1">
          <mxGeometry x="-1370" y="1190" width="60" height="30" as="geometry" />
        </mxCell>
        <mxCell id="j-uOjzAiipVmSamTyCxf-284" value="No" style="text;html=1;align=center;verticalAlign=middle;whiteSpace=wrap;rounded=0;" parent="WIyWlLk6GJQsqaUBKTNV-1" vertex="1">
          <mxGeometry x="-1420.01" y="990" width="60" height="30" as="geometry" />
        </mxCell>
        <mxCell id="j-uOjzAiipVmSamTyCxf-285" value="" style="endArrow=classic;html=1;rounded=0;exitX=0.5;exitY=0;exitDx=0;exitDy=0;exitPerimeter=0;entryX=0;entryY=0.5;entryDx=0;entryDy=0;" parent="WIyWlLk6GJQsqaUBKTNV-1" source="j-uOjzAiipVmSamTyCxf-69" target="j-uOjzAiipVmSamTyCxf-46" edge="1">
          <mxGeometry width="50" height="50" relative="1" as="geometry">
            <mxPoint x="-890" y="1130" as="sourcePoint" />
            <mxPoint x="-840" y="1080" as="targetPoint" />
            <Array as="points">
              <mxPoint x="-1360" y="900" />
            </Array>
          </mxGeometry>
        </mxCell>
        <mxCell id="j-uOjzAiipVmSamTyCxf-286" value="Coba Lagi?&lt;div&gt;[Y/N]&lt;/div&gt;" style="rhombus;whiteSpace=wrap;html=1;" parent="WIyWlLk6GJQsqaUBKTNV-1" vertex="1">
          <mxGeometry x="-1400.01" y="860" width="80" height="80" as="geometry" />
        </mxCell>
        <mxCell id="j-uOjzAiipVmSamTyCxf-288" value="" style="endArrow=classic;html=1;rounded=0;exitX=0;exitY=0.5;exitDx=0;exitDy=0;" parent="WIyWlLk6GJQsqaUBKTNV-1" source="j-uOjzAiipVmSamTyCxf-286" target="j-uOjzAiipVmSamTyCxf-289" edge="1">
          <mxGeometry width="50" height="50" relative="1" as="geometry">
            <mxPoint x="-1570" y="780" as="sourcePoint" />
            <mxPoint x="-1500" y="930" as="targetPoint" />
          </mxGeometry>
        </mxCell>
        <mxCell id="j-uOjzAiipVmSamTyCxf-289" value="print(&quot;Perintah tidak ditemukan (hanya Y/N&quot;)" style="shape=parallelogram;perimeter=parallelogramPerimeter;whiteSpace=wrap;html=1;fixedSize=1;" parent="WIyWlLk6GJQsqaUBKTNV-1" vertex="1">
          <mxGeometry x="-1609.9999999999998" y="950" width="120" height="60" as="geometry" />
        </mxCell>
        <mxCell id="j-uOjzAiipVmSamTyCxf-291" value="" style="endArrow=classic;html=1;rounded=0;entryX=0.369;entryY=0.842;entryDx=0;entryDy=0;entryPerimeter=0;exitX=1;exitY=0.75;exitDx=0;exitDy=0;" parent="WIyWlLk6GJQsqaUBKTNV-1" source="j-uOjzAiipVmSamTyCxf-289" target="j-uOjzAiipVmSamTyCxf-286" edge="1">
          <mxGeometry width="50" height="50" relative="1" as="geometry">
            <mxPoint x="-1570" y="780" as="sourcePoint" />
            <mxPoint x="-1520" y="730" as="targetPoint" />
          </mxGeometry>
        </mxCell>
        <mxCell id="j-uOjzAiipVmSamTyCxf-292" value="else" style="text;html=1;align=center;verticalAlign=middle;whiteSpace=wrap;rounded=0;" parent="WIyWlLk6GJQsqaUBKTNV-1" vertex="1">
          <mxGeometry x="-1455" y="880" width="60" height="30" as="geometry" />
        </mxCell>
        <mxCell id="j-uOjzAiipVmSamTyCxf-293" value="" style="endArrow=classic;html=1;rounded=0;entryX=0;entryY=0.5;entryDx=0;entryDy=0;" parent="WIyWlLk6GJQsqaUBKTNV-1" target="j-uOjzAiipVmSamTyCxf-5" edge="1">
          <mxGeometry width="50" height="50" relative="1" as="geometry">
            <mxPoint x="-1360" y="860" as="sourcePoint" />
            <mxPoint x="-1310" y="810" as="targetPoint" />
            <Array as="points">
              <mxPoint x="-1360" y="340" />
            </Array>
          </mxGeometry>
        </mxCell>
        <mxCell id="j-uOjzAiipVmSamTyCxf-294" value="Y" style="text;html=1;align=center;verticalAlign=middle;whiteSpace=wrap;rounded=0;" parent="WIyWlLk6GJQsqaUBKTNV-1" vertex="1">
          <mxGeometry x="-1330" y="870" width="60" height="30" as="geometry" />
        </mxCell>
        <mxCell id="j-uOjzAiipVmSamTyCxf-295" value="N" style="text;html=1;align=center;verticalAlign=middle;whiteSpace=wrap;rounded=0;" parent="WIyWlLk6GJQsqaUBKTNV-1" vertex="1">
          <mxGeometry x="-1400" y="810" width="60" height="30" as="geometry" />
        </mxCell>
        <mxCell id="Pe8v_tdV25wXCAUM1Yoh-2" value="" style="edgeStyle=orthogonalEdgeStyle;rounded=0;orthogonalLoop=1;jettySize=auto;html=1;" parent="WIyWlLk6GJQsqaUBKTNV-1" source="Pe8v_tdV25wXCAUM1Yoh-0" target="j-uOjzAiipVmSamTyCxf-218" edge="1">
          <mxGeometry relative="1" as="geometry" />
        </mxCell>
        <mxCell id="Pe8v_tdV25wXCAUM1Yoh-0" value="for c in contact[&quot;contacts&quot;]:" style="rounded=0;whiteSpace=wrap;html=1;" parent="WIyWlLk6GJQsqaUBKTNV-1" vertex="1">
          <mxGeometry x="-1680.02" y="1763" width="120" height="60" as="geometry" />
        </mxCell>
        <mxCell id="Pe8v_tdV25wXCAUM1Yoh-4" value="" style="endArrow=classic;html=1;rounded=0;" parent="WIyWlLk6GJQsqaUBKTNV-1" edge="1">
          <mxGeometry width="50" height="50" relative="1" as="geometry">
            <mxPoint x="300" y="1899.69" as="sourcePoint" />
            <mxPoint x="370" y="1899.69" as="targetPoint" />
          </mxGeometry>
        </mxCell>
        <mxCell id="Pe8v_tdV25wXCAUM1Yoh-5" value="" style="endArrow=classic;html=1;rounded=0;entryX=0.103;entryY=0.144;entryDx=0;entryDy=0;entryPerimeter=0;" parent="WIyWlLk6GJQsqaUBKTNV-1" target="j-uOjzAiipVmSamTyCxf-137" edge="1">
          <mxGeometry width="50" height="50" relative="1" as="geometry">
            <mxPoint x="140" y="1980" as="sourcePoint" />
            <mxPoint x="160" y="1980" as="targetPoint" />
          </mxGeometry>
        </mxCell>
        <mxCell id="Pe8v_tdV25wXCAUM1Yoh-7" value="" style="endArrow=classic;html=1;rounded=0;entryX=0.103;entryY=0.144;entryDx=0;entryDy=0;entryPerimeter=0;" parent="WIyWlLk6GJQsqaUBKTNV-1" edge="1">
          <mxGeometry width="50" height="50" relative="1" as="geometry">
            <mxPoint x="430.34" y="2180" as="sourcePoint" />
            <mxPoint x="454.34" y="2180" as="targetPoint" />
          </mxGeometry>
        </mxCell>
        <mxCell id="Pe8v_tdV25wXCAUM1Yoh-9" value="" style="endArrow=classic;html=1;rounded=0;entryX=0.103;entryY=0.144;entryDx=0;entryDy=0;entryPerimeter=0;" parent="WIyWlLk6GJQsqaUBKTNV-1" edge="1">
          <mxGeometry width="50" height="50" relative="1" as="geometry">
            <mxPoint x="123.5" y="2235" as="sourcePoint" />
            <mxPoint x="147.5" y="2235" as="targetPoint" />
          </mxGeometry>
        </mxCell>
        <mxCell id="Pe8v_tdV25wXCAUM1Yoh-10" value="" style="endArrow=classic;html=1;rounded=0;entryX=0.103;entryY=0.144;entryDx=0;entryDy=0;entryPerimeter=0;" parent="WIyWlLk6GJQsqaUBKTNV-1" edge="1">
          <mxGeometry width="50" height="50" relative="1" as="geometry">
            <mxPoint x="123.5" y="2295" as="sourcePoint" />
            <mxPoint x="147.5" y="2295" as="targetPoint" />
          </mxGeometry>
        </mxCell>
        <mxCell id="Pe8v_tdV25wXCAUM1Yoh-11" value="" style="endArrow=classic;html=1;rounded=0;entryX=0.103;entryY=0.144;entryDx=0;entryDy=0;entryPerimeter=0;" parent="WIyWlLk6GJQsqaUBKTNV-1" edge="1">
          <mxGeometry width="50" height="50" relative="1" as="geometry">
            <mxPoint x="123.5" y="2344.82" as="sourcePoint" />
            <mxPoint x="147.5" y="2344.82" as="targetPoint" />
          </mxGeometry>
        </mxCell>
        <mxCell id="Pe8v_tdV25wXCAUM1Yoh-12" value="" style="endArrow=classic;html=1;rounded=0;entryX=0.103;entryY=0.144;entryDx=0;entryDy=0;entryPerimeter=0;" parent="WIyWlLk6GJQsqaUBKTNV-1" edge="1">
          <mxGeometry width="50" height="50" relative="1" as="geometry">
            <mxPoint x="120" y="2400" as="sourcePoint" />
            <mxPoint x="144" y="2400" as="targetPoint" />
          </mxGeometry>
        </mxCell>
        <mxCell id="Pe8v_tdV25wXCAUM1Yoh-13" value="" style="endArrow=classic;html=1;rounded=0;entryX=0.103;entryY=0.144;entryDx=0;entryDy=0;entryPerimeter=0;" parent="WIyWlLk6GJQsqaUBKTNV-1" edge="1">
          <mxGeometry width="50" height="50" relative="1" as="geometry">
            <mxPoint x="310" y="2570" as="sourcePoint" />
            <mxPoint x="334" y="2570" as="targetPoint" />
          </mxGeometry>
        </mxCell>
        <mxCell id="Pe8v_tdV25wXCAUM1Yoh-14" value="" style="endArrow=classic;html=1;rounded=0;entryX=0.103;entryY=0.144;entryDx=0;entryDy=0;entryPerimeter=0;exitX=0.859;exitY=0.831;exitDx=0;exitDy=0;exitPerimeter=0;" parent="WIyWlLk6GJQsqaUBKTNV-1" source="j-uOjzAiipVmSamTyCxf-169" edge="1">
          <mxGeometry width="50" height="50" relative="1" as="geometry">
            <mxPoint x="590" y="2370" as="sourcePoint" />
            <mxPoint x="614" y="2370" as="targetPoint" />
          </mxGeometry>
        </mxCell>
        <mxCell id="Pe8v_tdV25wXCAUM1Yoh-15" value="" style="endArrow=classic;html=1;rounded=0;entryX=0.103;entryY=0.144;entryDx=0;entryDy=0;entryPerimeter=0;exitX=0.859;exitY=0.831;exitDx=0;exitDy=0;exitPerimeter=0;" parent="WIyWlLk6GJQsqaUBKTNV-1" edge="1">
          <mxGeometry width="50" height="50" relative="1" as="geometry">
            <mxPoint x="743" y="2190" as="sourcePoint" />
            <mxPoint x="770" y="2190" as="targetPoint" />
          </mxGeometry>
        </mxCell>
        <mxCell id="Pe8v_tdV25wXCAUM1Yoh-16" value="" style="endArrow=classic;html=1;rounded=0;entryX=0.104;entryY=0.145;entryDx=0;entryDy=0;entryPerimeter=0;exitX=0.859;exitY=0.831;exitDx=0;exitDy=0;exitPerimeter=0;" parent="WIyWlLk6GJQsqaUBKTNV-1" target="j-uOjzAiipVmSamTyCxf-163" edge="1">
          <mxGeometry width="50" height="50" relative="1" as="geometry">
            <mxPoint x="447.01" y="1979.9599999999998" as="sourcePoint" />
            <mxPoint x="474.01" y="1979.9599999999998" as="targetPoint" />
          </mxGeometry>
        </mxCell>
        <mxCell id="Pe8v_tdV25wXCAUM1Yoh-18" value="" style="endArrow=classic;html=1;rounded=0;exitX=0.915;exitY=0.753;exitDx=0;exitDy=0;exitPerimeter=0;" parent="WIyWlLk6GJQsqaUBKTNV-1" source="j-uOjzAiipVmSamTyCxf-161" edge="1">
          <mxGeometry width="50" height="50" relative="1" as="geometry">
            <mxPoint x="610" y="1899.77" as="sourcePoint" />
            <mxPoint x="680" y="1899.77" as="targetPoint" />
          </mxGeometry>
        </mxCell>
        <mxCell id="Pe8v_tdV25wXCAUM1Yoh-19" value="" style="endArrow=classic;html=1;rounded=0;entryX=0.103;entryY=0.144;entryDx=0;entryDy=0;entryPerimeter=0;" parent="WIyWlLk6GJQsqaUBKTNV-1" edge="1">
          <mxGeometry width="50" height="50" relative="1" as="geometry">
            <mxPoint x="83.67" y="2354.77" as="sourcePoint" />
            <mxPoint x="107.67" y="2354.77" as="targetPoint" />
          </mxGeometry>
        </mxCell>
        <mxCell id="Pe8v_tdV25wXCAUM1Yoh-20" value="" style="endArrow=classic;html=1;rounded=0;entryX=0.103;entryY=0.144;entryDx=0;entryDy=0;entryPerimeter=0;exitX=0.9;exitY=0.728;exitDx=0;exitDy=0;exitPerimeter=0;" parent="WIyWlLk6GJQsqaUBKTNV-1" source="j-uOjzAiipVmSamTyCxf-116" edge="1">
          <mxGeometry width="50" height="50" relative="1" as="geometry">
            <mxPoint x="-121.25" y="2295" as="sourcePoint" />
            <mxPoint x="-97.25" y="2295" as="targetPoint" />
          </mxGeometry>
        </mxCell>
        <mxCell id="Pe8v_tdV25wXCAUM1Yoh-23" value="" style="endArrow=classic;html=1;rounded=0;" parent="WIyWlLk6GJQsqaUBKTNV-1" edge="1">
          <mxGeometry width="50" height="50" relative="1" as="geometry">
            <mxPoint x="-490" y="2124.75" as="sourcePoint" />
            <mxPoint x="-460" y="2124.75" as="targetPoint" />
          </mxGeometry>
        </mxCell>
        <mxCell id="Pe8v_tdV25wXCAUM1Yoh-24" value="" style="endArrow=classic;html=1;rounded=0;" parent="WIyWlLk6GJQsqaUBKTNV-1" edge="1">
          <mxGeometry width="50" height="50" relative="1" as="geometry">
            <mxPoint x="-272" y="2070" as="sourcePoint" />
            <mxPoint x="-242" y="2070" as="targetPoint" />
          </mxGeometry>
        </mxCell>
        <mxCell id="Pe8v_tdV25wXCAUM1Yoh-25" value="" style="endArrow=classic;html=1;rounded=0;entryX=0.122;entryY=0.087;entryDx=0;entryDy=0;entryPerimeter=0;" parent="WIyWlLk6GJQsqaUBKTNV-1" target="j-uOjzAiipVmSamTyCxf-91" edge="1">
          <mxGeometry width="50" height="50" relative="1" as="geometry">
            <mxPoint x="-467" y="1865" as="sourcePoint" />
            <mxPoint x="-437" y="1865" as="targetPoint" />
          </mxGeometry>
        </mxCell>
        <mxCell id="Pe8v_tdV25wXCAUM1Yoh-26" value="" style="endArrow=classic;html=1;rounded=0;" parent="WIyWlLk6GJQsqaUBKTNV-1" edge="1">
          <mxGeometry width="50" height="50" relative="1" as="geometry">
            <mxPoint x="-49.5" y="1909.8999999999999" as="sourcePoint" />
            <mxPoint x="-19.5" y="1909.8999999999999" as="targetPoint" />
          </mxGeometry>
        </mxCell>
        <mxCell id="Pe8v_tdV25wXCAUM1Yoh-27" value="" style="endArrow=classic;html=1;rounded=0;entryX=0.122;entryY=0.087;entryDx=0;entryDy=0;entryPerimeter=0;" parent="WIyWlLk6GJQsqaUBKTNV-1" edge="1">
          <mxGeometry width="50" height="50" relative="1" as="geometry">
            <mxPoint x="-345" y="1720" as="sourcePoint" />
            <mxPoint x="-312" y="1720" as="targetPoint" />
          </mxGeometry>
        </mxCell>
        <mxCell id="Pe8v_tdV25wXCAUM1Yoh-28" value="" style="endArrow=classic;html=1;rounded=0;entryX=0.122;entryY=0.087;entryDx=0;entryDy=0;entryPerimeter=0;" parent="WIyWlLk6GJQsqaUBKTNV-1" edge="1">
          <mxGeometry width="50" height="50" relative="1" as="geometry">
            <mxPoint x="-340" y="1648" as="sourcePoint" />
            <mxPoint x="-307" y="1648" as="targetPoint" />
          </mxGeometry>
        </mxCell>
        <mxCell id="Pe8v_tdV25wXCAUM1Yoh-29" value="" style="endArrow=classic;html=1;rounded=0;entryX=0.103;entryY=0.144;entryDx=0;entryDy=0;entryPerimeter=0;exitX=0.9;exitY=0.728;exitDx=0;exitDy=0;exitPerimeter=0;" parent="WIyWlLk6GJQsqaUBKTNV-1" edge="1">
          <mxGeometry width="50" height="50" relative="1" as="geometry">
            <mxPoint x="83.66999999999999" y="2100" as="sourcePoint" />
            <mxPoint x="110.41999999999999" y="2100" as="targetPoint" />
          </mxGeometry>
        </mxCell>
        <mxCell id="Pe8v_tdV25wXCAUM1Yoh-37" value="" style="endArrow=classic;html=1;rounded=0;entryX=0.103;entryY=0.144;entryDx=0;entryDy=0;entryPerimeter=0;" parent="WIyWlLk6GJQsqaUBKTNV-1" edge="1">
          <mxGeometry width="50" height="50" relative="1" as="geometry">
            <mxPoint x="520" y="1450" as="sourcePoint" />
            <mxPoint x="544" y="1450" as="targetPoint" />
          </mxGeometry>
        </mxCell>
        <mxCell id="Pe8v_tdV25wXCAUM1Yoh-38" value="" style="endArrow=classic;html=1;rounded=0;entryX=0.103;entryY=0.144;entryDx=0;entryDy=0;entryPerimeter=0;" parent="WIyWlLk6GJQsqaUBKTNV-1" edge="1">
          <mxGeometry width="50" height="50" relative="1" as="geometry">
            <mxPoint x="83.67000000000002" y="1540" as="sourcePoint" />
            <mxPoint x="107.67000000000002" y="1540" as="targetPoint" />
          </mxGeometry>
        </mxCell>
        <mxCell id="Pe8v_tdV25wXCAUM1Yoh-39" value="" style="endArrow=classic;html=1;rounded=0;entryX=0.103;entryY=0.144;entryDx=0;entryDy=0;entryPerimeter=0;exitX=0.9;exitY=0.728;exitDx=0;exitDy=0;exitPerimeter=0;" parent="WIyWlLk6GJQsqaUBKTNV-1" edge="1">
          <mxGeometry width="50" height="50" relative="1" as="geometry">
            <mxPoint x="108.24999999999999" y="2020" as="sourcePoint" />
            <mxPoint x="135" y="2020" as="targetPoint" />
          </mxGeometry>
        </mxCell>
        <mxCell id="Pe8v_tdV25wXCAUM1Yoh-40" value="" style="endArrow=classic;html=1;rounded=0;exitX=0.866;exitY=0.828;exitDx=0;exitDy=0;exitPerimeter=0;" parent="WIyWlLk6GJQsqaUBKTNV-1" source="j-uOjzAiipVmSamTyCxf-206" edge="1">
          <mxGeometry width="50" height="50" relative="1" as="geometry">
            <mxPoint x="-900" y="1370" as="sourcePoint" />
            <mxPoint x="-870" y="1340" as="targetPoint" />
          </mxGeometry>
        </mxCell>
        <mxCell id="Pe8v_tdV25wXCAUM1Yoh-41" value="" style="endArrow=classic;html=1;rounded=0;exitX=0.866;exitY=0.828;exitDx=0;exitDy=0;exitPerimeter=0;" parent="WIyWlLk6GJQsqaUBKTNV-1" edge="1">
          <mxGeometry width="50" height="50" relative="1" as="geometry">
            <mxPoint x="-1486" y="1460" as="sourcePoint" />
            <mxPoint x="-1460" y="1460" as="targetPoint" />
          </mxGeometry>
        </mxCell>
        <mxCell id="Pe8v_tdV25wXCAUM1Yoh-42" value="" style="endArrow=classic;html=1;rounded=0;exitX=0.866;exitY=0.828;exitDx=0;exitDy=0;exitPerimeter=0;" parent="WIyWlLk6GJQsqaUBKTNV-1" edge="1">
          <mxGeometry width="50" height="50" relative="1" as="geometry">
            <mxPoint x="-1980" y="1540" as="sourcePoint" />
            <mxPoint x="-1954" y="1540" as="targetPoint" />
          </mxGeometry>
        </mxCell>
        <mxCell id="Pe8v_tdV25wXCAUM1Yoh-43" value="" style="endArrow=classic;html=1;rounded=0;exitX=0.866;exitY=0.828;exitDx=0;exitDy=0;exitPerimeter=0;" parent="WIyWlLk6GJQsqaUBKTNV-1" edge="1">
          <mxGeometry width="50" height="50" relative="1" as="geometry">
            <mxPoint x="-1980" y="1605" as="sourcePoint" />
            <mxPoint x="-1954" y="1605" as="targetPoint" />
          </mxGeometry>
        </mxCell>
        <mxCell id="Pe8v_tdV25wXCAUM1Yoh-44" value="" style="endArrow=classic;html=1;rounded=0;exitX=0.866;exitY=0.828;exitDx=0;exitDy=0;exitPerimeter=0;" parent="WIyWlLk6GJQsqaUBKTNV-1" edge="1">
          <mxGeometry width="50" height="50" relative="1" as="geometry">
            <mxPoint x="-1536.01" y="1944.77" as="sourcePoint" />
            <mxPoint x="-1510.01" y="1944.77" as="targetPoint" />
          </mxGeometry>
        </mxCell>
        <mxCell id="Pe8v_tdV25wXCAUM1Yoh-45" value="" style="endArrow=classic;html=1;rounded=0;exitX=0.866;exitY=0.828;exitDx=0;exitDy=0;exitPerimeter=0;" parent="WIyWlLk6GJQsqaUBKTNV-1" edge="1">
          <mxGeometry width="50" height="50" relative="1" as="geometry">
            <mxPoint x="-1563" y="2035" as="sourcePoint" />
            <mxPoint x="-1537" y="2035" as="targetPoint" />
          </mxGeometry>
        </mxCell>
        <mxCell id="Pe8v_tdV25wXCAUM1Yoh-46" value="" style="endArrow=classic;html=1;rounded=0;exitX=0.866;exitY=0.828;exitDx=0;exitDy=0;exitPerimeter=0;" parent="WIyWlLk6GJQsqaUBKTNV-1" edge="1">
          <mxGeometry width="50" height="50" relative="1" as="geometry">
            <mxPoint x="-1563" y="2235" as="sourcePoint" />
            <mxPoint x="-1537" y="2235" as="targetPoint" />
          </mxGeometry>
        </mxCell>
        <mxCell id="Pe8v_tdV25wXCAUM1Yoh-47" value="" style="endArrow=classic;html=1;rounded=0;exitX=0.866;exitY=0.828;exitDx=0;exitDy=0;exitPerimeter=0;" parent="WIyWlLk6GJQsqaUBKTNV-1" edge="1">
          <mxGeometry width="50" height="50" relative="1" as="geometry">
            <mxPoint x="-1486" y="2164.77" as="sourcePoint" />
            <mxPoint x="-1460" y="2164.77" as="targetPoint" />
          </mxGeometry>
        </mxCell>
        <mxCell id="Pe8v_tdV25wXCAUM1Yoh-48" value="" style="endArrow=classic;html=1;rounded=0;exitX=0.866;exitY=0.828;exitDx=0;exitDy=0;exitPerimeter=0;" parent="WIyWlLk6GJQsqaUBKTNV-1" edge="1">
          <mxGeometry width="50" height="50" relative="1" as="geometry">
            <mxPoint x="-1486" y="2235" as="sourcePoint" />
            <mxPoint x="-1460" y="2235" as="targetPoint" />
          </mxGeometry>
        </mxCell>
        <mxCell id="Pe8v_tdV25wXCAUM1Yoh-49" value="" style="endArrow=classic;html=1;rounded=0;exitX=0.866;exitY=0.828;exitDx=0;exitDy=0;exitPerimeter=0;" parent="WIyWlLk6GJQsqaUBKTNV-1" edge="1">
          <mxGeometry width="50" height="50" relative="1" as="geometry">
            <mxPoint x="-1110" y="2100" as="sourcePoint" />
            <mxPoint x="-1084" y="2100" as="targetPoint" />
          </mxGeometry>
        </mxCell>
        <mxCell id="Pe8v_tdV25wXCAUM1Yoh-50" value="" style="endArrow=classic;html=1;rounded=0;exitX=0.866;exitY=0.828;exitDx=0;exitDy=0;exitPerimeter=0;" parent="WIyWlLk6GJQsqaUBKTNV-1" edge="1">
          <mxGeometry width="50" height="50" relative="1" as="geometry">
            <mxPoint x="-1460" y="1874.77" as="sourcePoint" />
            <mxPoint x="-1434" y="1874.77" as="targetPoint" />
          </mxGeometry>
        </mxCell>
        <mxCell id="Pe8v_tdV25wXCAUM1Yoh-51" value="" style="endArrow=classic;html=1;rounded=0;exitX=0.866;exitY=0.828;exitDx=0;exitDy=0;exitPerimeter=0;" parent="WIyWlLk6GJQsqaUBKTNV-1" edge="1">
          <mxGeometry width="50" height="50" relative="1" as="geometry">
            <mxPoint x="-1306" y="1820" as="sourcePoint" />
            <mxPoint x="-1280" y="1820" as="targetPoint" />
          </mxGeometry>
        </mxCell>
        <mxCell id="Pe8v_tdV25wXCAUM1Yoh-52" value="" style="endArrow=classic;html=1;rounded=0;exitX=0.866;exitY=0.828;exitDx=0;exitDy=0;exitPerimeter=0;" parent="WIyWlLk6GJQsqaUBKTNV-1" edge="1">
          <mxGeometry width="50" height="50" relative="1" as="geometry">
            <mxPoint x="-1296" y="1249.51" as="sourcePoint" />
            <mxPoint x="-1270" y="1249.51" as="targetPoint" />
          </mxGeometry>
        </mxCell>
        <mxCell id="Pe8v_tdV25wXCAUM1Yoh-53" value="" style="endArrow=classic;html=1;rounded=0;exitX=0.866;exitY=0.828;exitDx=0;exitDy=0;exitPerimeter=0;" parent="WIyWlLk6GJQsqaUBKTNV-1" edge="1">
          <mxGeometry width="50" height="50" relative="1" as="geometry">
            <mxPoint x="-1506" y="1000" as="sourcePoint" />
            <mxPoint x="-1480" y="1000" as="targetPoint" />
          </mxGeometry>
        </mxCell>
      </root>
    </mxGraphModel>
  </diagram>
</mxfile>
